<?xml version="1.0" encoding="UTF-8"?>
<svg id="Layer_1" xmlns="http://www.w3.org/2000/svg" xmlns:xlink="http://www.w3.org/1999/xlink" version="1.1" viewBox="0 0 1080 1080">
  <!-- Generator: Adobe Illustrator 29.4.0, SVG Export Plug-In . SVG Version: 2.1.0 Build 152)  -->
  <defs>
    <style>
      .st0 {
        fill: url(#linear-gradient2);
      }

      .st1 {
        fill: url(#linear-gradient1);
      }

      .st2 {
        fill: url(#linear-gradient3);
      }

      .st3 {
        fill: url(#linear-gradient6);
      }

      .st4 {
        fill: url(#linear-gradient7);
      }

      .st5 {
        fill: url(#linear-gradient5);
      }

      .st6 {
        fill: url(#linear-gradient4);
      }

      .st7 {
        fill: url(#linear-gradient);
      }

      .st8 {
        fill: #fff;
      }
    </style>
    <linearGradient id="linear-gradient" x1="349.76" y1="713.46" x2="727.08" y2="336.14" gradientUnits="userSpaceOnUse">
      <stop offset="0" stop-color="#2e368e"/>
      <stop offset="1" stop-color="#29aae1"/>
    </linearGradient>
    <linearGradient id="linear-gradient1" x1="257.56" y1="845.16" x2="257.56" y2="712.09" gradientUnits="userSpaceOnUse">
      <stop offset="0" stop-color="#2e368e"/>
      <stop offset="1" stop-color="#29aae1"/>
    </linearGradient>
    <linearGradient id="linear-gradient2" x1="329.29" y1="845.16" x2="329.29" y2="712.09" xlink:href="#linear-gradient1"/>
    <linearGradient id="linear-gradient3" x1="418.18" y1="845.16" x2="418.18" y2="712.08" xlink:href="#linear-gradient1"/>
    <linearGradient id="linear-gradient4" x1="510.84" y1="845.16" x2="510.84" y2="712.09" xlink:href="#linear-gradient1"/>
    <linearGradient id="linear-gradient5" x1="589.83" y1="845.16" x2="589.83" y2="712.08" xlink:href="#linear-gradient1"/>
    <linearGradient id="linear-gradient6" x1="702.11" y1="845.16" x2="702.11" y2="712.08" xlink:href="#linear-gradient1"/>
    <linearGradient id="linear-gradient7" x1="815.43" y1="845.16" x2="815.43" y2="712.08" xlink:href="#linear-gradient1"/>
  </defs>
  <path class="st7" d="M733.31,396.92c-3.3,0-6.56.12-9.8.36-5.23-91.46-81.62-164.02-175.1-164.02-88.62,0-161.88,65.23-173.71,149.93-6.66-.98-13.48-1.49-20.41-1.49-76.93,0-139.3,62.37-139.3,139.3s62.37,139.3,139.3,139.3c.11,0,.22,0,.33,0h378.35c.11,0,.22,0,.33,0,72.73,0,131.69-58.96,131.69-131.69s-58.96-131.69-131.69-131.69Z"/>
  <path class="st8" d="M665.96,375.61v28.89c0,2.66-2.17,4.81-4.83,4.78l-50.55-.45c-2.61-.02-4.76,2.05-4.82,4.66-.2,7.83-.4,15.69-.94,23.49-1.68,24.28-5.22,48.4-6.32,72.72-.99,21.81-3.55,62.48,27.65,63.53,17.75.59,28.24-11.86,30.06-27.91.27-2.42,2.31-4.26,4.75-4.26h0c2.8,0,4.99,2.39,4.77,5.18-2.23,29.3-19.47,64.53-51.68,67.01-25.37,1.96-46.31-11.1-52.28-36.25-2.5-10.52-1.59-19.37-1.21-29.89,1.61-44.76,8.23-89.13,10.8-133.8.16-2.74-2.04-5.05-4.78-5.05h-45.93c-2.47,0-4.54,1.87-4.77,4.33-3.36,35.13-5.37,70.44-9.07,105.54-2.39,22.69-6.63,72.15-23.99,87.73-12.31,11.04-31.9,10.14-42.4-2.89-16.72-20.77,4.21-39.12,15.39-55.73,26.97-40.05,35.66-86.68,36.7-134.41.06-2.58-1.97-4.72-4.55-4.86-12.01-.65-23.97-.38-35.26,4.42-9.32,3.96-15.29,9.92-20.74,18.26-1.69,2.58-6.44,12.28-8.12,13.49-.52.37-1.43.55-2.5.6-3.47.17-5.92-3.38-4.6-6.59,7.08-17.24,11.85-40.72,25.24-52.29,17.54-15.15,56.47-14.39,78.82-14.99,39.24-1.05,78.76-.62,118.01,0,7.45.12,14.91-.06,22.36-.06,2.65,0,4.8,2.14,4.8,4.79Z"/>
  <g>
    <path class="st1" d="M295.75,777.2c-2.92,5.49-7.59,9.96-14.01,13.4-6.42,3.45-14.66,5.17-24.7,5.17h-22.07v49.39h-19.97v-121.73h42.04c9.34,0,17.25,1.61,23.73,4.82,6.48,3.21,11.32,7.56,14.54,13.05,3.21,5.49,4.82,11.62,4.82,18.39,0,6.19-1.46,12.03-4.38,17.52ZM274.03,774.31c3.74-3.44,5.6-8.32,5.6-14.63,0-13.31-7.53-19.97-22.59-19.97h-22.07v39.76h22.07c7.59,0,13.25-1.72,16.99-5.17Z"/>
    <path class="st0" d="M320.27,732.19c-2.45-2.45-3.68-5.49-3.68-9.11s1.23-6.66,3.68-9.11,5.49-3.68,9.11-3.68,6.48,1.23,8.93,3.68,3.68,5.49,3.68,9.11-1.23,6.66-3.68,9.11-5.43,3.68-8.93,3.68-6.66-1.23-9.11-3.68ZM339.18,748.65v96.51h-19.97v-96.51h19.97Z"/>
    <path class="st2" d="M367.12,751.98c5.54-9.46,13.08-16.84,22.59-22.16,9.52-5.31,19.94-7.97,31.27-7.97,12.96,0,24.49,3.18,34.59,9.55,10.1,6.37,17.43,15.39,21.98,27.06h-24c-3.15-6.42-7.53-11.21-13.14-14.36-5.6-3.15-12.09-4.73-19.44-4.73-8.06,0-15.24,1.81-21.54,5.43-6.31,3.62-11.24,8.82-14.8,15.59-3.56,6.77-5.34,14.66-5.34,23.65s1.78,16.88,5.34,23.65c3.56,6.77,8.5,12,14.8,15.68s13.49,5.52,21.54,5.52c7.36,0,13.84-1.58,19.44-4.73,5.6-3.15,9.98-7.94,13.14-14.36h24c-4.55,11.68-11.88,20.67-21.98,26.97-10.1,6.31-21.63,9.46-34.59,9.46-11.45,0-21.89-2.65-31.35-7.97-9.46-5.31-16.96-12.7-22.51-22.16-5.55-9.46-8.32-20.14-8.32-32.05s2.77-22.59,8.32-32.05Z"/>
    <path class="st6" d="M520.82,715.55v129.61h-19.97v-129.61h19.97Z"/>
    <path class="st5" d="M564.26,840.52c-7.36-4.14-13.14-9.98-17.34-17.52-4.2-7.53-6.31-16.26-6.31-26.19s2.16-18.51,6.48-26.1c4.32-7.59,10.22-13.43,17.69-17.52,7.47-4.09,15.82-6.13,25.05-6.13s17.57,2.04,25.05,6.13c7.47,4.09,13.37,9.93,17.69,17.52,4.32,7.59,6.48,16.29,6.48,26.1s-2.22,18.51-6.66,26.1c-4.44,7.59-10.48,13.46-18.13,17.6-7.65,4.15-16.09,6.22-25.31,6.22s-17.34-2.07-24.7-6.22ZM603.41,825.72c4.49-2.45,8.14-6.13,10.95-11.03,2.8-4.9,4.2-10.86,4.2-17.87s-1.34-12.93-4.03-17.78c-2.69-4.84-6.25-8.5-10.68-10.95-4.44-2.45-9.23-3.68-14.36-3.68s-9.9,1.23-14.28,3.68-7.85,6.1-10.42,10.95c-2.57,4.85-3.85,10.77-3.85,17.78,0,10.39,2.65,18.42,7.97,24.08,5.31,5.67,12,8.5,20.06,8.5,5.14,0,9.95-1.23,14.45-3.68Z"/>
    <path class="st3" d="M746.25,748.65v96.51h-19.97v-11.39c-3.15,3.97-7.27,7.09-12.35,9.37-5.08,2.28-10.48,3.42-16.2,3.42-7.59,0-14.39-1.58-20.41-4.73-6.02-3.15-10.74-7.82-14.19-14.01-3.45-6.19-5.17-13.66-5.17-22.42v-56.75h19.79v53.77c0,8.64,2.16,15.27,6.48,19.88,4.32,4.61,10.22,6.92,17.69,6.92s13.4-2.3,17.78-6.92c4.38-4.61,6.57-11.24,6.57-19.88v-53.77h19.97Z"/>
    <path class="st4" d="M771.91,770.72c4.03-7.47,9.52-13.28,16.46-17.43,6.95-4.14,14.68-6.22,23.21-6.22,6.31,0,12.52,1.37,18.65,4.12,6.13,2.75,11,6.39,14.63,10.95v-46.59h20.14v129.61h-20.14v-14.54c-3.27,4.67-7.79,8.53-13.57,11.56-5.78,3.04-12.41,4.55-19.88,4.55-8.41,0-16.09-2.13-23.03-6.39-6.95-4.26-12.44-10.22-16.46-17.87-4.03-7.65-6.04-16.32-6.04-26.01s2.01-18.27,6.04-25.75ZM840.74,779.48c-2.75-4.9-6.34-8.64-10.77-11.21-4.44-2.57-9.23-3.85-14.36-3.85s-9.93,1.26-14.36,3.77c-4.44,2.51-8.03,6.19-10.77,11.03-2.75,4.85-4.12,10.6-4.12,17.25s1.37,12.5,4.12,17.52c2.74,5.02,6.36,8.85,10.86,11.47,4.49,2.63,9.25,3.94,14.28,3.94s9.92-1.28,14.36-3.85c4.44-2.57,8.03-6.33,10.77-11.3,2.74-4.96,4.12-10.77,4.12-17.43s-1.37-12.44-4.12-17.34Z"/>
  </g>
</svg>