<?xml version="1.0" standalone="no"?>
<!DOCTYPE svg PUBLIC "-//W3C//DTD SVG 20010904//EN"
 "http://www.w3.org/TR/2001/REC-SVG-20010904/DTD/svg10.dtd">
<svg version="1.0" xmlns="http://www.w3.org/2000/svg"
 width="1563.000000pt" height="517.000000pt" viewBox="0 0 1563.000000 517.000000"
 preserveAspectRatio="xMidYMid meet">

<g transform="translate(0.000000,517.000000) scale(0.100000,-0.100000)"
fill="#000000" stroke="none">
<path d="M2506 5149 c-21 -5 -93 -35 -160 -67 -231 -111 -435 -260 -647 -471
-186 -185 -323 -370 -424 -571 -44 -89 -114 -265 -125 -314 -5 -23 -15 -61
-24 -86 -22 -68 -36 -136 -36 -180 0 -22 -5 -49 -12 -60 -10 -15 -10 -29 -1
-62 10 -36 10 -45 -2 -54 -26 -20 -16 -54 31 -104 l47 -50 -43 15 c-53 19 -60
19 -60 1 0 -25 71 -75 198 -138 114 -56 148 -78 123 -78 -5 0 -78 22 -160 49
-83 27 -151 45 -151 42 0 -4 31 -29 70 -55 38 -27 70 -50 70 -53 0 -3 -29 -2
-65 2 -60 6 -65 5 -65 -12 0 -11 13 -32 30 -48 30 -28 30 -28 9 -43 -18 -12
-20 -21 -14 -51 4 -20 11 -58 15 -86 7 -42 25 -109 55 -210 5 -17 -11 -29
-107 -80 -240 -128 -408 -247 -575 -408 -219 -212 -350 -413 -420 -647 -34
-116 -43 -304 -19 -414 24 -107 85 -224 159 -302 202 -216 730 -448 1162 -511
218 -31 660 -15 772 28 15 6 48 14 73 19 51 9 125 34 186 61 23 11 49 19 58
19 9 0 29 12 44 27 17 18 38 28 56 28 23 0 34 8 50 35 20 33 21 50 21 287 0
138 3 246 7 240 14 -22 20 -96 27 -297 8 -256 24 -270 31 -28 3 97 8 179 12
183 6 6 49 -165 63 -252 10 -63 25 -52 26 20 1 34 4 76 8 92 7 30 7 29 34 -28
32 -69 56 -74 71 -14 7 29 13 36 25 31 43 -18 50 -15 75 25 15 23 34 41 42 41
9 0 52 36 96 80 43 44 83 80 88 80 5 0 56 -28 112 -63 497 -306 961 -421 1363
-338 314 65 512 231 597 501 21 69 23 91 22 295 -1 305 -24 495 -89 721 -83
287 -223 562 -403 789 -76 95 -247 264 -284 279 -16 7 -35 24 -41 37 -9 17
-25 27 -55 33 -32 8 -44 16 -48 33 -8 31 -31 35 -98 18 -33 -9 -60 -14 -62
-12 -2 2 10 16 26 32 31 30 39 55 18 55 -27 -1 -108 -44 -216 -117 -62 -42
-115 -74 -117 -71 -6 5 115 123 190 185 28 23 47 44 44 48 -4 3 -39 -10 -78
-29 -39 -20 -76 -36 -82 -36 -6 0 3 19 20 42 30 41 41 88 21 88 -6 0 -27 -7
-47 -15 -45 -19 -43 -20 -43 14 0 30 -14 41 -53 41 -12 0 -40 9 -62 19 -41 20
-92 35 -180 54 l-51 11 -1 230 c-1 332 -26 518 -102 746 -83 248 -189 428
-338 571 -101 98 -194 157 -305 193 -68 23 -92 26 -210 25 -73 -1 -150 -5
-172 -10z m343 -25 c263 -74 500 -329 632 -678 44 -118 83 -257 104 -373 20
-111 39 -472 31 -575 -9 -97 -9 -97 -85 -82 l-31 7 0 71 c0 118 -19 385 -35
482 -31 193 -99 413 -175 564 -91 182 -252 373 -384 455 -110 68 -263 110
-421 116 -37 1 25 20 95 29 82 10 199 3 269 -16z m-171 -55 c26 -6 89 -31 139
-55 78 -37 109 -60 193 -141 121 -116 183 -196 248 -323 140 -269 222 -632
222 -987 l0 -133 -49 0 c-28 0 -53 5 -56 11 -4 5 -11 74 -16 152 -28 430 -127
763 -311 1038 -112 169 -255 293 -415 359 -69 29 -92 33 -196 38 -65 3 -115 8
-110 13 35 34 253 51 351 28z m-67 -96 c210 -82 398 -277 529 -548 83 -172
133 -333 170 -548 21 -126 43 -397 34 -421 -8 -20 -92 -23 -99 -3 -2 6 -13 86
-25 177 -36 287 -98 515 -200 726 -167 346 -433 578 -680 591 -134 7 -155 21
-72 48 34 11 77 14 157 11 93 -3 122 -8 186 -33z m-155 -72 c109 -37 202 -101
305 -208 252 -262 406 -659 454 -1175 l7 -68 -41 -1 c-23 -1 -47 -2 -53 -3 -9
-1 -21 50 -39 154 -15 85 -36 193 -47 240 -143 589 -504 1020 -854 1020 -78 0
-84 10 -28 48 28 19 46 22 124 22 74 0 106 -6 172 -29z m-356 -15 c0 -2 -7 -7
-16 -10 -8 -3 -12 -2 -9 4 6 10 25 14 25 6z m215 -67 c295 -91 576 -478 700
-963 30 -118 75 -353 75 -393 0 -9 -17 -13 -53 -13 l-52 0 -23 113 c-91 442
-242 760 -471 988 -92 92 -119 112 -201 153 -52 25 -126 53 -163 61 -38 7 -71
15 -73 17 -7 8 28 50 50 59 29 12 138 1 211 -22z m-287 -18 c-7 -12 -16 -21
-21 -21 -4 0 0 11 9 25 20 30 31 26 12 -4z m-58 -16 c-7 -9 -15 -13 -18 -10
-3 2 1 11 8 20 7 9 15 13 18 10 3 -2 -1 -11 -8 -20z m174 -46 c154 -30 347
-184 485 -388 100 -146 202 -371 259 -571 39 -133 77 -318 69 -327 -4 -3 -26
-7 -49 -7 -42 -1 -43 -1 -60 49 -9 28 -29 95 -44 150 -85 311 -228 588 -399
773 -115 124 -252 214 -370 243 -28 6 -51 13 -53 15 -2 1 7 21 20 43 25 45 19
44 142 20z m-154 4 c0 -11 -52 -74 -57 -69 -7 7 36 76 48 76 5 0 9 -3 9 -7z
m-75 -37 c-10 -14 -22 -26 -27 -26 -10 0 -3 16 20 43 22 25 27 13 7 -17z m-69
-24 c-18 -16 -18 -16 -6 6 6 13 14 21 18 18 3 -4 -2 -14 -12 -24z m34 -38 c0
-16 -36 -64 -48 -64 -10 0 -10 5 -1 23 6 12 16 28 22 35 10 12 27 17 27 6z
m50 -1 c0 -5 -10 -24 -22 -43 -25 -41 -36 -25 -13 19 14 28 35 42 35 24z m121
-12 c124 -42 212 -103 330 -229 183 -194 322 -463 415 -800 45 -164 45 -162
-10 -162 -24 0 -48 6 -53 13 -6 6 -29 68 -52 137 -141 418 -331 711 -561 867
-58 39 -165 93 -185 93 -21 0 -19 15 7 61 25 44 34 46 109 20z m-246 -30 c-8
-17 -20 -31 -26 -31 -10 0 3 32 24 58 17 22 19 5 2 -27z m-55 -12 c-7 -11 -14
-19 -16 -16 -7 7 7 37 17 37 6 0 5 -9 -1 -21z m80 -44 c0 -16 -29 -72 -43 -84
-23 -19 -22 0 3 49 17 34 40 53 40 35z m-60 -17 c0 -19 -40 -81 -47 -74 -8 8
27 86 39 86 4 0 8 -6 8 -12z m91 -35 c-19 -50 -49 -75 -36 -32 15 53 28 79 41
79 11 0 10 -10 -5 -47z m-141 32 c0 -14 -32 -65 -40 -65 -9 0 1 37 16 61 6 10
24 12 24 4z m290 -28 c268 -133 531 -508 665 -952 15 -49 30 -96 32 -102 4
-10 -10 -13 -50 -13 l-55 0 -48 123 c-62 160 -151 336 -223 445 -122 181 -287
343 -416 406 l-54 26 21 50 c25 61 35 62 128 17z m-361 -29 c-7 -13 -14 -18
-16 -11 -3 7 1 22 8 35 7 13 14 18 16 11 3 -7 -1 -22 -8 -35z m31 -48 c0 -6
-7 -27 -17 -48 -12 -28 -17 -33 -20 -19 -5 21 15 77 28 77 5 0 9 -5 9 -10z
m50 0 c0 -20 -29 -80 -39 -80 -8 0 3 61 16 83 6 11 23 9 23 -3z m43 -22 c-9
-51 -21 -78 -34 -78 -12 0 -7 33 13 83 15 37 29 34 21 -5z m-154 -10 c-10 -38
-29 -60 -29 -36 0 25 18 68 29 68 6 0 6 -12 0 -32z m197 -22 c-3 -18 -13 -41
-22 -52 -14 -18 -15 -16 -9 25 7 50 26 93 33 73 2 -7 1 -28 -2 -46z m-257 -12
c-9 -22 -13 -25 -16 -12 -5 19 18 69 24 52 2 -6 -2 -24 -8 -40z m380 9 c243
-144 464 -453 612 -857 16 -44 28 -81 26 -82 -1 -1 -24 -4 -51 -6 -35 -2 -50
1 -56 12 -5 8 -42 85 -83 170 -143 296 -328 532 -510 648 -55 35 -58 38 -52
71 10 51 23 81 37 81 8 0 42 -17 77 -37z m-426 -18 c-3 -9 -8 -14 -10 -11 -3
3 -2 9 2 15 9 16 15 13 8 -4z m81 -62 c-9 -49 -24 -77 -34 -67 -14 14 9 104
26 104 12 0 13 -8 8 -37z m46 3 c0 -46 -18 -92 -31 -79 -11 11 8 113 22 113 5
0 9 -15 9 -34z m-112 -48 c-12 -22 -13 -22 -16 -2 -1 11 3 34 9 50 l13 29 4
-27 c2 -15 -3 -37 -10 -50z m161 40 c-1 -46 -12 -80 -24 -76 -5 2 -9 12 -7 23
8 62 14 85 22 85 6 0 10 -15 9 -32z m-210 -50 c-18 -33 -24 -4 -8 35 12 28 14
29 17 10 2 -12 -2 -32 -9 -45z m261 52 c0 -30 -23 -110 -32 -110 -11 0 -5 91
7 110 8 13 25 13 25 0z m43 -32 c-17 -76 -25 -98 -35 -98 -12 0 -4 71 13 101
14 26 28 24 22 -3z m-354 -32 c-9 -8 -10 -7 -5 7 3 10 7 24 7 30 1 7 3 4 6 -7
3 -10 -1 -23 -8 -30z m459 -6 c130 -87 294 -280 407 -479 58 -103 160 -319
153 -326 -2 -2 -23 -8 -46 -13 -50 -12 -49 -13 -131 143 -74 140 -166 275
-254 376 -69 79 -183 184 -224 207 -15 9 -15 16 -3 71 7 35 18 61 25 61 7 0
40 -18 73 -40z m-365 -57 c-6 -60 -10 -73 -23 -73 -11 0 -13 61 -4 98 4 12 12
22 19 22 9 0 11 -14 8 -47z m-49 0 c-8 -52 -12 -63 -24 -63 -11 0 -14 58 -4
84 3 9 12 16 19 16 10 0 12 -10 9 -37z m102 21 c-3 -9 -6 -36 -6 -60 0 -32 -4
-44 -15 -44 -11 0 -15 12 -15 44 0 55 8 76 27 76 10 0 13 -6 9 -16z m44 -48
c0 -23 -7 -51 -15 -62 -13 -17 -14 -14 -15 42 0 33 3 64 6 67 14 14 24 -6 24
-47z m-200 17 c0 -31 -15 -61 -26 -51 -9 10 5 78 16 78 6 0 10 -12 10 -27z
m243 -45 c-6 -71 -7 -73 -24 -63 -11 8 -7 94 6 115 16 25 23 4 18 -52z m-297
-5 c-10 -26 -18 -8 -9 23 5 21 8 24 11 11 2 -10 1 -25 -2 -34z m339 -10 c-10
-80 -24 -102 -25 -38 0 59 8 95 22 95 7 0 8 -21 3 -57z m39 -31 c-7 -65 -24
-94 -24 -41 0 53 12 109 21 103 5 -3 6 -31 3 -62z m124 -25 c139 -121 280
-309 401 -536 34 -63 60 -115 58 -116 -70 -37 -97 -33 -126 18 -89 158 -220
337 -332 452 -106 109 -119 125 -114 151 2 16 7 46 10 67 7 45 12 43 103 -36z
m-453 -12 c0 -50 -18 -72 -30 -36 -9 28 5 93 19 88 6 -2 11 -25 11 -52z m53 0
c2 -26 0 -55 -3 -63 -11 -29 -25 8 -25 66 0 69 24 67 28 -3z m-108 -5 c-11
-57 -20 -61 -20 -8 0 45 6 61 20 53 4 -3 4 -23 0 -45z m155 -15 c0 -38 -4 -60
-12 -62 -10 -4 -13 13 -13 62 0 49 3 66 13 63 8 -3 12 -25 12 -63z m45 -21 c0
-41 -4 -63 -10 -59 -5 3 -10 35 -10 71 0 41 4 63 10 59 6 -3 10 -35 10 -71z
m-245 6 c-7 -22 -25 -27 -25 -7 0 6 3 23 7 36 5 20 7 21 15 7 5 -9 6 -25 3
-36z m295 -37 c0 -55 -14 -78 -24 -40 -8 30 -8 102 1 110 13 13 23 -18 23 -70z
m40 -25 c0 -31 -4 -60 -10 -63 -6 -4 -10 22 -10 72 0 54 3 73 10 63 5 -8 10
-41 10 -72z m40 -30 c0 -31 -4 -60 -10 -63 -6 -4 -10 22 -10 72 0 54 3 73 10
63 5 -8 10 -41 10 -72z m-326 36 c10 -25 7 -104 -4 -104 -13 0 -30 70 -24 97
7 27 19 30 28 7z m59 -61 c3 -29 2 -55 -3 -58 -16 -10 -30 32 -30 86 0 46 2
51 14 39 7 -8 16 -38 19 -67z m294 -5 c-2 -18 -4 -6 -4 27 0 33 2 48 4 33 2
-15 2 -42 0 -60z m-399 31 c2 -32 -11 -69 -21 -59 -6 6 -10 45 -8 78 2 36 26
20 29 -19z m145 17 c3 -8 9 -43 13 -77 5 -44 4 -60 -4 -55 -14 9 -32 71 -32
114 0 33 14 43 23 18z m403 -89 c43 -46 113 -129 154 -185 74 -101 180 -276
180 -298 0 -13 -43 -34 -70 -34 -13 0 -37 26 -71 78 -75 111 -173 236 -251
319 l-68 72 0 60 c0 114 8 113 126 -12z m-598 47 c-4 -35 -28 -45 -28 -11 0
14 3 33 6 42 10 25 26 2 22 -31z m245 22 c13 -33 19 -136 9 -136 -11 0 -32 83
-32 125 0 27 15 34 23 11z m57 -96 c1 -36 1 -69 1 -75 -5 -23 -20 36 -26 101
-6 62 -6 67 8 54 10 -10 16 -37 17 -80z m42 -33 c3 -32 2 -60 -2 -62 -9 -6
-20 56 -20 110 1 58 17 23 22 -48z m-336 26 c3 -16 10 -43 14 -60 7 -26 5 -33
-6 -33 -18 0 -34 40 -34 86 0 41 17 45 26 7z m45 5 c7 -12 18 -44 25 -70 10
-40 10 -48 -1 -48 -19 0 -52 95 -46 133 2 13 10 8 22 -15z m327 -73 c0 -48 -2
-54 -8 -30 -11 43 -11 136 0 110 5 -11 8 -47 8 -80z m-248 -9 c18 -62 15 -82
-8 -53 -10 13 -42 116 -42 138 0 33 33 -24 50 -85z m-169 35 c3 -23 2 -44 -2
-47 -12 -7 -29 31 -29 66 0 47 24 32 31 -19z m458 -46 c1 -42 -2 -56 -9 -45
-5 8 -9 44 -9 80 1 84 17 51 18 -35z m-243 29 c17 -61 24 -114 14 -114 -9 0
-50 124 -50 149 0 27 25 2 36 -35z m54 -28 c1 -6 7 -37 14 -68 8 -32 10 -58 6
-58 -10 0 -50 127 -50 156 1 18 1 18 15 0 8 -11 15 -25 15 -30z m415 -161 c73
-93 175 -242 175 -255 0 -9 -62 -50 -76 -50 -5 0 -29 28 -54 62 -25 34 -80
105 -122 158 -92 112 -108 143 -108 203 0 85 8 87 68 21 30 -32 82 -95 117
-139z m-730 176 c3 -5 1 -12 -4 -15 -5 -3 -11 1 -15 9 -6 16 9 21 19 6z m371
-99 c9 -40 14 -75 12 -78 -6 -5 -48 138 -48 163 0 35 19 -9 36 -85z m42 -42
c0 -33 -1 -32 -13 15 -18 69 -18 114 0 60 8 -22 13 -56 13 -75z m-398 58 c23
-51 26 -80 6 -72 -18 7 -36 49 -36 84 0 41 8 38 30 -12z m60 -4 c31 -70 35
-95 17 -88 -16 6 -57 91 -57 118 0 31 21 15 40 -30z m72 -39 c30 -74 33 -85
19 -85 -11 0 -56 91 -67 134 -14 55 19 22 48 -49z m44 28 c3 -10 17 -46 31
-80 35 -85 23 -103 -15 -23 -49 104 -54 120 -36 120 8 0 17 -8 20 -17z m254
-4 c0 -6 -4 -7 -10 -4 -5 3 -10 11 -10 16 0 6 5 7 10 4 6 -3 10 -11 10 -16z
m-476 -15 c8 -29 3 -39 -13 -29 -13 8 -15 55 -2 55 5 0 12 -12 15 -26z m316
-105 c18 -44 30 -82 28 -85 -6 -6 -88 170 -88 188 1 24 27 -21 60 -103z m23
49 c35 -82 76 -193 73 -196 -4 -4 -46 84 -77 161 -10 26 -15 47 -10 47 5 0 11
-6 14 -12z m-289 -63 c41 -76 45 -90 16 -75 -39 21 -91 140 -61 140 5 0 25
-29 45 -65z m85 -39 c49 -80 59 -108 32 -92 -16 10 -111 159 -111 174 0 30 28
1 79 -82z m270 29 c0 -18 -1 -17 -14 5 -20 34 -20 60 0 34 8 -10 14 -28 14
-39z m304 -86 c117 -144 128 -173 78 -208 l-28 -20 -40 47 c-136 162 -128 149
-132 242 l-3 85 41 -46 c22 -25 60 -70 84 -100z m-727 96 c17 -41 18 -55 4
-55 -14 0 -39 60 -33 77 8 20 13 16 29 -22z m250 -102 c73 -113 89 -146 47
-100 -35 36 -143 200 -143 214 0 26 20 2 96 -114z m209 87 c3 -5 1 -10 -4 -10
-6 0 -11 5 -11 10 0 6 2 10 4 10 3 0 8 -4 11 -10z m-189 -43 c88 -134 138
-217 131 -217 -5 0 -167 237 -167 244 0 15 17 3 36 -27z m1511 -3 c-3 -3 -12
-4 -19 -1 -8 3 -5 6 6 6 11 1 17 -2 13 -5z m123 -14 c22 -7 21 -8 -12 -9 -21
-1 -38 4 -38 9 0 11 14 11 50 0z m280 0 c0 -5 -6 -10 -14 -10 -8 0 -18 5 -21
10 -3 6 3 10 14 10 12 0 21 -4 21 -10z m-2132 -112 c20 -21 34 -40 31 -42 -3
-3 -25 8 -50 25 -51 33 -86 86 -75 114 6 16 11 13 33 -21 14 -21 42 -56 61
-76z m40 40 c58 -71 139 -152 252 -252 30 -26 48 -44 40 -39 -36 23 -150 111
-209 162 -62 54 -171 177 -171 193 0 25 36 -1 88 -64z m1417 62 c-3 -5 -13
-10 -21 -10 -8 0 -14 5 -14 10 0 6 9 10 21 10 11 0 17 -4 14 -10z m153 -8
c-27 -8 -51 -12 -55 -8 -13 12 20 26 62 25 l40 -1 -47 -16z m422 2 c0 -11 -5
-14 -16 -10 -9 3 -20 6 -25 6 -6 0 -7 5 -4 10 10 16 45 12 45 -6z m-630 -3 c0
-12 -66 -34 -83 -28 -6 3 4 12 23 20 40 19 60 21 60 8z m357 -14 c-6 -18 -57
-31 -70 -17 -9 9 -8 14 6 24 19 15 70 9 64 -7z m523 7 c0 -14 -3 -14 -15 -4
-8 7 -15 14 -15 16 0 2 7 4 15 4 8 0 15 -7 15 -16z m-1956 -66 c28 -56 8 -34
-33 36 -14 23 -18 35 -10 29 9 -7 28 -36 43 -65z m1206 62 c0 -11 -53 -40 -75
-40 -25 0 -17 28 13 38 36 14 62 14 62 2z m696 -4 c17 -13 17 -15 2 -21 -18
-7 -58 10 -58 25 0 15 33 12 56 -4z m-1016 -6 c-8 -5 -19 -10 -25 -10 -5 0 -3
5 5 10 8 5 20 10 25 10 6 0 3 -5 -5 -10z m450 -10 c0 -21 -21 -36 -60 -41 -41
-6 -33 31 10 47 48 17 50 17 50 -6z m315 10 c4 -6 -5 -10 -19 -10 -14 0 -26 5
-26 10 0 6 9 10 19 10 11 0 23 -4 26 -10z m540 -1 c4 -6 5 -12 2 -15 -7 -7
-37 7 -37 17 0 13 27 11 35 -2z m-2243 -224 c6 -11 -40 29 -101 90 -61 60
-111 116 -111 125 1 16 194 -180 212 -215z m1593 213 c31 -14 32 -24 3 -32
-41 -10 -58 -7 -58 12 0 34 14 39 55 20z m266 2 c10 -6 19 -15 19 -20 0 -17
-37 -11 -61 10 l-24 19 23 1 c13 0 32 -5 43 -10z m279 -6 c0 -8 -4 -12 -10 -9
-5 3 -10 10 -10 16 0 5 5 9 10 9 6 0 10 -7 10 -16z m-1260 -3 c0 -10 -54 -31
-78 -31 -21 0 -6 13 31 27 40 15 47 15 47 4z m130 -2 c0 -10 -59 -39 -80 -39
-20 0 -10 19 18 34 32 18 62 20 62 5z m1082 -6 c10 -9 18 -20 18 -25 0 -18
-43 -3 -58 20 -13 20 -13 22 3 22 10 0 27 -7 37 -17z m96 -2 c3 -8 -1 -12 -9
-9 -7 2 -15 10 -17 17 -3 8 1 12 9 9 7 -2 15 -10 17 -17z m-1038 0 c0 -16 -29
-33 -61 -34 -41 -2 -48 18 -12 31 35 13 73 15 73 3z m370 -10 c0 -25 -21 -41
-65 -48 -34 -6 -37 -4 -33 18 2 17 13 27 38 36 49 17 60 16 60 -6z m240 3 c0
-11 -5 -14 -16 -10 -9 3 -18 6 -20 6 -3 0 -2 5 1 10 10 16 35 12 35 -6z m-482
-17 c3 -12 -7 -22 -32 -32 -44 -19 -52 -19 -60 0 -4 10 5 22 27 35 37 23 60
22 65 -3z m732 -2 c0 -27 -9 -32 -28 -13 -18 18 -14 38 8 38 15 0 20 -7 20
-25z m290 4 c16 -28 5 -49 -24 -49 -36 0 -52 54 -18 63 30 8 31 8 42 -14z m79
12 c19 -12 5 -31 -24 -31 -22 0 -40 22 -28 34 9 9 36 7 52 -3z m-2285 -17 c3
-8 2 -12 -4 -9 -6 3 -10 10 -10 16 0 14 7 11 14 -7z m1629 -10 c18 -12 18 -13
-1 -23 -36 -19 -62 -14 -62 12 0 39 18 42 63 11z m92 16 c3 -5 -3 -10 -14 -10
-12 0 -21 5 -21 10 0 6 6 10 14 10 8 0 18 -4 21 -10z m-915 -15 c0 -8 -13 -21
-30 -30 -60 -31 -84 -9 -27 25 38 24 57 25 57 5z m740 -19 c0 -31 -4 -36 -37
-47 -32 -10 -38 -10 -50 7 -20 27 -17 33 30 54 57 25 57 25 57 -14z m305 18
c14 -9 25 -20 25 -25 0 -15 -32 -10 -52 8 -36 32 -16 45 27 17z m280 -18 c7
-21 6 -29 -5 -36 -21 -14 -34 -7 -45 24 -7 21 -6 29 5 36 21 14 34 7 45 -24z
m-1455 16 c0 -9 -64 -42 -80 -42 -20 0 -9 20 18 34 30 17 62 21 62 8z m267 -8
c4 -11 -58 -44 -82 -44 -27 0 -15 31 18 45 35 16 58 16 64 -1z m363 -4 c9 -16
6 -22 -17 -33 -16 -8 -38 -18 -50 -21 -20 -6 -23 -4 -23 19 0 20 8 29 33 40
42 19 44 18 57 -5z m650 10 c0 -5 -2 -10 -4 -10 -3 0 -8 5 -11 10 -3 6 -1 10
4 10 6 0 11 -4 11 -10z m-886 -17 c12 -29 -63 -68 -86 -45 -14 14 -1 31 36 48
40 17 43 17 50 -3z m1336 -2 c0 -24 -29 -57 -57 -66 -20 -5 -23 -3 -23 20 0
43 17 65 50 65 23 0 30 -5 30 -19z m-2114 -83 l44 -56 -36 -32 c-31 -27 -39
-30 -50 -18 -14 14 -44 133 -44 177 0 24 0 24 21 5 12 -10 41 -44 65 -76z
m1492 69 c3 -15 0 -16 -22 -6 -32 15 -34 32 -4 27 13 -2 24 -11 26 -21z m252
2 c0 -24 -23 -21 -28 4 -2 10 3 17 12 17 10 0 16 -9 16 -21z m-2426 -43 c79
-69 202 -157 283 -203 35 -19 62 -37 60 -40 -7 -7 -184 84 -269 139 -73 47
-158 126 -158 148 0 21 25 8 84 -44z m301 -27 c44 -45 70 -76 59 -71 -19 10
-152 152 -142 152 2 0 39 -37 83 -81z m2390 44 c-10 -61 -57 -83 -63 -30 -4
29 27 67 54 67 13 0 15 -7 9 -37z m-1605 12 c0 -16 -59 -57 -74 -52 -23 8 -14
27 21 46 46 25 53 25 53 6z m134 -1 c8 -20 10 -17 -31 -38 -41 -21 -53 -20
-53 2 0 11 14 25 33 35 41 20 44 20 51 1z m366 -8 c0 -26 -47 -53 -75 -42 -26
9 -17 36 18 51 46 20 57 18 57 -9z m235 4 c3 -11 4 -24 0 -30 -9 -14 -78 -31
-88 -21 -15 15 -3 45 23 58 36 18 58 16 65 -7z m235 -14 c0 -30 -4 -36 -40
-50 -55 -22 -60 -21 -60 13 0 32 11 43 55 59 44 15 45 15 45 -22z m84 -6 c-5
-5 -21 -12 -36 -15 -25 -6 -28 -4 -28 17 0 35 8 39 42 22 17 -9 26 -19 22 -24z
m242 15 c23 -35 8 -52 -22 -24 -13 12 -24 28 -24 36 0 22 28 15 46 -12z
m-1426 -3 c0 -12 -80 -55 -88 -47 -10 10 46 55 69 55 10 0 19 -4 19 -8z m398
-13 c2 -11 -10 -22 -35 -32 -21 -8 -41 -13 -45 -10 -17 9 -7 33 20 47 33 19
56 16 60 -5z m942 0 c0 -18 -2 -19 -15 -9 -15 12 -12 30 6 30 5 0 9 -10 9 -21z
m308 -21 c-2 -36 -7 -44 -25 -46 -19 -3 -23 1 -23 23 0 35 17 65 36 65 12 0
14 -10 12 -42z m282 35 c0 -18 -92 -124 -120 -138 -38 -20 -38 -12 3 50 38 58
117 117 117 88z m-2725 -89 c142 -103 155 -129 17 -35 -86 59 -132 96 -132
108 0 7 37 -16 115 -73z m1310 46 c0 -29 -47 -49 -70 -30 -22 19 -18 28 18 44
41 18 52 15 52 -14z m233 3 c-2 -21 -10 -29 -36 -37 -26 -7 -36 -6 -43 5 -12
20 -6 32 22 46 41 22 61 17 57 -14z m232 -8 c0 -31 -3 -35 -40 -46 -47 -14
-55 -10 -46 26 4 17 19 31 39 40 45 20 47 19 47 -20z m327 11 c15 -13 26 -27
22 -30 -6 -6 -69 35 -69 47 0 14 19 7 47 -17z m273 -21 c0 -54 -14 -58 -30 -9
-10 30 -10 38 1 45 25 15 29 10 29 -36z m-1423 8 c5 -13 -46 -43 -72 -43 -24
0 -17 24 13 43 30 18 53 19 59 0z m1063 8 c0 -43 -15 -71 -43 -80 -16 -6 -36
-11 -43 -11 -15 0 -18 27 -8 55 11 26 94 59 94 36z m161 -4 c-1 -12 -15 -9
-19 4 -3 6 1 10 8 8 6 -3 11 -8 11 -12z m-1351 -7 c0 -5 -13 -16 -30 -25 -53
-27 -83 -13 -37 18 25 18 67 22 67 7z m260 -6 c0 -16 -65 -48 -80 -39 -17 11
-11 24 18 39 35 20 62 20 62 0z m1234 0 c9 -24 7 -54 -4 -54 -12 0 -30 33 -30
54 0 21 26 21 34 0z m250 -43 c-44 -81 -79 -98 -52 -26 12 35 65 91 75 81 3
-3 -7 -28 -23 -55z m-1884 36 c0 -7 -18 -23 -40 -36 -47 -26 -53 -13 -9 23 34
29 49 33 49 13z m520 -11 c0 -17 -9 -27 -29 -36 -17 -6 -35 -9 -40 -5 -21 12
-11 36 22 50 44 19 47 19 47 -9z m238 1 c3 -12 -7 -22 -33 -33 -40 -16 -55
-12 -55 17 0 36 81 51 88 16z m220 -10 c3 -21 -2 -29 -23 -37 -46 -17 -65 -13
-65 15 0 20 8 29 33 40 41 18 51 15 55 -18z m403 22 c25 -13 16 -29 -17 -29
-26 0 -27 1 -18 24 7 19 9 19 35 5z m181 -11 c-7 -7 -12 -8 -12 -2 0 6 3 14 7
17 3 4 9 5 12 2 2 -3 -1 -11 -7 -17z m-352 -27 c0 -35 -17 -50 -64 -58 -28 -4
-36 -2 -36 10 0 30 13 49 44 63 46 20 56 17 56 -15z m324 4 c23 -36 20 -42 -9
-15 -26 24 -32 40 -16 40 5 0 16 -11 25 -25z m-1374 -3 c0 -19 -67 -58 -79
-47 -7 8 54 65 69 65 6 0 10 -8 10 -18z m130 3 c0 -16 -58 -57 -73 -52 -19 6
-10 22 22 44 40 27 51 29 51 8z m1527 1 c-3 -8 -11 -32 -18 -55 -7 -23 -16
-41 -21 -41 -11 0 -10 67 2 91 12 22 45 27 37 5z m-1787 -14 c0 -21 -64 -61
-77 -48 -8 8 53 66 69 66 4 0 8 -8 8 -18z m620 -1 c0 -27 -54 -48 -76 -30 -15
12 -14 15 6 31 30 24 70 24 70 -1z m220 -6 c0 -26 -25 -45 -59 -45 -12 0 -21
7 -21 15 0 8 -1 18 -1 23 -2 10 42 32 64 32 11 0 17 -8 17 -25z m-452 -6 c3
-15 -41 -39 -69 -39 -18 0 -8 29 14 45 26 19 51 16 55 -6z m1010 -21 c-3 -40
-5 -43 -45 -54 -24 -7 -45 -9 -47 -5 -3 4 -1 24 5 44 9 34 33 51 82 56 5 1 7
-18 5 -41z m63 25 c13 -16 12 -17 -3 -4 -17 13 -22 21 -14 21 2 0 10 -8 17
-17z m109 -4 c0 -5 -4 -9 -10 -9 -5 0 -10 7 -10 16 0 8 5 12 10 9 6 -3 10 -10
10 -16z m640 12 c0 -10 -101 -71 -116 -71 -7 0 103 77 114 79 1 1 2 -3 2 -8z
m-3045 -56 c11 -9 -3 -4 -32 9 -28 14 -55 31 -58 37 -8 12 61 -22 90 -46z
m1895 25 c0 -32 -26 -50 -71 -50 -30 0 -22 51 11 67 43 22 60 17 60 -17z m660
11 c0 -29 -18 -71 -30 -71 -11 0 -14 49 -4 74 9 23 34 20 34 -3z m215 -63
c-43 -40 -82 -75 -88 -77 -13 -5 48 81 77 108 24 22 78 52 84 46 2 -2 -31 -36
-73 -77z m-1421 57 c6 -18 -30 -45 -61 -45 -34 0 -28 29 10 45 41 18 44 18 51
0z m221 -6 c10 -31 -11 -44 -67 -40 -30 2 -20 31 15 46 42 19 45 19 52 -6z
m-865 2 c0 -10 -53 -51 -66 -51 -4 0 5 14 21 30 29 30 45 38 45 21z m1416 -36
c-5 -26 -14 -39 -32 -45 -47 -18 -64 -13 -64 19 0 17 6 33 13 38 15 10 81 31
86 27 2 -2 0 -19 -3 -39z m174 14 c0 -12 -27 -11 -35 1 -11 17 5 32 21 19 8
-6 14 -15 14 -20z m199 -11 c-1 -39 -2 -41 -8 -13 -4 17 -5 36 -3 43 8 23 12
12 11 -30z m-1499 22 c0 -14 -68 -45 -77 -36 -5 4 3 16 16 27 25 20 61 26 61
9z m120 -5 c0 -19 -35 -37 -63 -33 -20 3 -19 6 13 26 41 26 50 27 50 7z m668
-17 c3 -21 -3 -28 -29 -37 -46 -16 -51 -14 -47 16 2 17 12 32 28 40 33 17 44
12 48 -19z m681 -28 c1 -20 -1 -22 -9 -10 -5 8 -9 29 -9 45 0 26 2 27 9 10 5
-11 9 -31 9 -45z m-1599 42 c0 -10 -54 -42 -72 -42 -18 1 39 50 58 50 8 0 14
-4 14 -8z m1547 -14 c-3 -8 -6 -5 -6 6 -1 11 2 17 5 13 3 -3 4 -12 1 -19z
m763 7 c0 -18 -19 -28 -127 -66 -48 -17 -144 -60 -213 -95 -140 -72 -124 -52
34 45 103 62 253 130 289 131 9 0 17 -7 17 -15z m-1933 -11 c4 -12 -57 -45
-69 -38 -15 10 -8 31 15 42 26 13 49 11 54 -4z m223 -3 c0 -23 -4 -26 -47 -36
-29 -6 -33 -4 -33 14 0 23 24 40 58 41 15 0 22 -6 22 -19z m-736 -5 c-7 -19
-54 -50 -62 -41 -8 7 43 55 58 55 5 0 7 -6 4 -14z m954 -17 c3 -22 -2 -27 -28
-33 -18 -3 -36 -3 -41 0 -17 10 -9 45 14 54 34 14 52 7 55 -21z m320 -6 c3
-28 -1 -32 -32 -43 -42 -13 -56 -7 -56 24 0 26 14 41 45 49 32 8 40 2 43 -30z
m702 30 c0 -8 -79 -113 -86 -113 -6 0 10 31 43 83 21 33 43 49 43 30z m-370
-18 c7 -8 10 -25 6 -40 -7 -26 -30 -40 -77 -47 -25 -3 -26 2 -13 60 7 36 62
53 84 27z m-2127 -47 c60 -29 104 -54 99 -56 -12 -4 -167 66 -204 92 -40 28
-7 17 105 -36z m677 42 c0 -13 -58 -42 -73 -37 -7 2 4 14 23 25 39 24 50 27
50 12z m130 0 c0 -13 -34 -30 -60 -30 -25 0 -17 18 14 30 29 12 46 12 46 0z
m347 -5 c7 -21 2 -25 -41 -32 -29 -4 -36 -2 -36 10 0 32 66 50 77 22z m-222
-4 c7 -12 -26 -31 -54 -31 -28 0 -27 14 2 28 28 14 44 14 52 3z m440 -12 c9
-26 6 -29 -39 -36 -32 -5 -36 -3 -36 16 0 13 9 25 23 31 35 14 45 12 52 -11z
m313 -16 c3 -28 0 -31 -33 -37 -21 -4 -39 -5 -42 -2 -12 12 9 57 30 66 32 13
42 7 45 -27z m-1153 2 c-26 -22 -55 -33 -55 -21 0 7 64 46 75 45 6 0 -3 -11
-20 -24z m1485 -5 c0 -17 -9 -39 -20 -50 -27 -27 -80 -27 -80 -1 0 34 12 53
44 67 47 20 56 17 56 -16z m384 -7 c-17 -41 -34 -64 -34 -46 0 20 30 83 40 83
5 0 2 -17 -6 -37z m651 23 l30 -14 -25 -9 c-14 -6 -54 -13 -90 -17 -58 -7 -63
-6 -50 8 20 20 71 46 90 45 8 0 29 -6 45 -13z m-2011 -2 c24 -9 19 -21 -11
-31 -30 -11 -53 -7 -53 8 0 8 13 16 47 28 1 1 8 -2 17 -5z m-334 -13 c0 -12
-56 -34 -72 -28 -7 2 2 11 22 20 42 18 50 20 50 8z m120 -1 c0 -15 -39 -32
-63 -27 -19 3 -18 5 13 20 41 19 50 20 50 7z m447 -6 c7 -20 -13 -34 -48 -34
-32 0 -45 25 -21 39 26 16 62 13 69 -5z m313 -13 c0 -30 -18 -41 -67 -41 -18
0 -23 6 -23 25 0 27 25 43 68 44 18 1 22 -4 22 -28z m770 14 c0 -8 -4 -15 -10
-15 -5 0 -7 7 -4 15 4 8 8 15 10 15 2 0 4 -7 4 -15z m236 -50 c-119 -79 -131
-85 -86 -45 47 43 149 110 168 110 8 0 -29 -29 -82 -65z m-2021 45 c-7 -12
-65 -43 -65 -35 0 5 61 45 68 45 2 0 0 -5 -3 -10z m1325 -25 c0 -38 -24 -59
-63 -53 -17 2 -22 10 -22 33 0 25 5 32 35 42 50 17 50 17 50 -22z m974 24
c-13 -22 -254 -126 -254 -110 0 5 6 11 13 14 6 3 62 28 122 56 116 53 130 58
119 40z m-2434 -3 c0 -2 -7 -6 -15 -10 -8 -3 -15 -1 -15 4 0 6 7 10 15 10 8 0
15 -2 15 -4z m508 -14 c3 -11 -5 -14 -53 -16 -24 -1 -19 18 7 25 29 9 41 6 46
-9z m226 2 c8 -22 6 -24 -38 -31 -29 -5 -36 -3 -36 11 0 30 64 46 74 20z m304
-16 c4 -29 -29 -44 -60 -27 -24 13 -19 30 13 46 32 17 43 12 47 -19z m-1443
-69 c6 -7 -6 -8 -35 -4 -111 16 -148 27 -181 55 l-34 28 120 -35 c66 -19 125
-39 130 -44z m690 71 c-6 -10 -76 -32 -83 -25 -5 5 57 33 76 34 7 1 11 -3 7
-9z m349 -6 c8 -22 9 -21 -25 -28 -17 -3 -38 -2 -47 3 -14 8 -11 12 18 25 44
19 47 19 54 0z m309 -3 c6 -26 -11 -41 -45 -41 -53 0 -27 56 28 59 7 1 14 -8
17 -18z m405 -15 c4 -33 -10 -46 -50 -46 -22 0 -28 5 -28 23 1 58 72 79 78 23z
m427 3 c14 -17 24 -37 22 -43 -4 -12 -94 -33 -103 -23 -9 9 6 66 23 82 21 21
28 19 58 -16z m845 22 c0 -21 -37 -35 -151 -57 -66 -14 -170 -40 -231 -60 -60
-20 -111 -34 -114 -32 -9 10 291 119 376 137 111 23 120 24 120 12z m-2475
-11 c-3 -5 -12 -10 -18 -10 -7 0 -6 4 3 10 19 12 23 12 15 0z m265 1 c0 -11
-25 -21 -53 -21 -22 1 -22 1 -3 15 22 17 56 20 56 6z m2310 -17 c12 -12 7 -14
-39 -14 -54 0 -54 0 -36 20 20 22 48 19 75 -6z m-1877 -5 c4 -15 -1 -22 -19
-29 -13 -5 -31 -7 -39 -3 -23 8 -14 36 15 44 37 10 37 11 43 -12z m407 -1 c0
-35 -13 -48 -53 -55 -32 -5 -37 -3 -37 14 0 35 27 57 78 62 6 0 12 -9 12 -21z
m419 -30 c-11 -42 -12 -43 -57 -53 -39 -8 -50 10 -30 52 13 28 75 58 90 44 4
-4 3 -23 -3 -43z m-2024 20 c7 -7 2 -8 -15 -3 -14 4 -29 12 -35 17 -7 7 -2 8
15 3 14 -4 30 -12 35 -17z m883 10 c-5 -15 -78 -24 -78 -9 0 10 22 18 58 20
15 1 22 -4 20 -11z m1517 -18 c-10 -11 -20 -18 -23 -15 -3 3 3 14 13 25 10 11
20 18 23 15 3 -3 -3 -14 -13 -25z m-1755 10 c-8 -5 -24 -10 -35 -10 -17 0 -17
2 -5 10 8 5 24 10 35 10 17 0 17 -2 5 -10z m458 -11 c2 -11 -7 -18 -29 -23
-50 -10 -70 16 -26 34 30 12 51 8 55 -11z m390 -11 c-3 -29 -6 -33 -33 -33
-25 0 -30 4 -30 25 0 17 7 26 25 31 40 11 41 11 38 -23z m-708 12 c0 -5 -4
-10 -9 -10 -5 0 -23 -3 -40 -6 -19 -4 -31 -2 -31 4 0 10 23 18 63 21 9 0 17
-3 17 -9z m1128 -17 c3 -23 -25 -59 -53 -67 -55 -15 -56 56 -1 80 38 16 50 13
54 -13z m-2205 -3 c32 -5 70 -19 84 -30 l26 -20 -72 0 c-68 0 -73 2 -109 35
-34 33 -35 35 -12 31 14 -3 51 -10 83 -16z m1292 10 c8 -13 -33 -29 -57 -22
-14 3 -16 7 -7 18 13 16 55 19 64 4z m400 -20 c0 -22 -5 -25 -37 -28 -32 -3
-38 0 -38 17 0 23 26 42 55 38 14 -1 20 -9 20 -27z m-745 10 c-8 -5 -24 -9
-35 -9 l-20 0 20 9 c11 5 27 9 35 9 13 1 13 0 0 -9z m2240 2 c0 -15 -50 -32
-144 -52 -50 -10 -120 -26 -155 -34 -94 -22 -62 -3 54 33 165 50 245 67 245
53z m189 -1 c24 -16 -22 -31 -94 -31 -48 0 -66 3 -63 12 8 24 127 38 157 19z
m-2179 -11 c0 -5 -18 -10 -41 -10 -24 0 -38 4 -34 10 3 6 22 10 41 10 19 0 34
-4 34 -10z m395 -15 c0 -25 -46 -33 -64 -11 -19 22 -4 38 32 34 24 -2 32 -8
32 -23z m501 -7 c-7 -37 -20 -48 -58 -48 -23 0 -28 4 -28 24 0 33 25 56 62 56
29 0 30 -2 24 -32z m-1810 -10 c4 -5 -22 -8 -58 -8 -49 0 -72 5 -88 18 -22 18
-20 18 58 8 44 -6 84 -14 88 -18z m804 22 c0 -5 -16 -10 -36 -10 -21 0 -33 4
-29 10 3 6 19 10 36 10 16 0 29 -4 29 -10z m410 -5 c10 -12 8 -16 -15 -25 -39
-15 -55 -12 -55 8 0 10 3 22 7 25 12 12 50 7 63 -8z m1944 0 c24 -18 18 -26
-12 -18 -12 3 -22 12 -22 19 0 18 10 17 34 -1z m-2036 -17 c3 -14 -3 -18 -25
-18 -15 0 -34 4 -42 9 -11 7 -10 11 5 20 26 15 58 9 62 -11z m580 -10 c-3 -29
-7 -33 -36 -36 -37 -4 -50 15 -32 47 7 14 21 21 41 21 28 0 30 -2 27 -32z
m486 -7 c12 -42 -4 -58 -73 -71 -81 -15 -91 -14 -91 14 0 37 30 66 85 80 63
18 68 16 79 -23z m-1166 12 c2 -9 -8 -13 -32 -13 -20 0 -36 4 -36 9 0 22 60
25 68 4z m577 -18 c0 -27 -3 -30 -37 -33 -35 -3 -38 -1 -38 23 0 17 7 29 23
35 37 15 52 8 52 -25z m-680 15 c4 -6 -8 -10 -29 -10 -20 0 -36 5 -36 10 0 6
13 10 29 10 17 0 33 -4 36 -10z m2131 -3 c18 -18 -17 -27 -107 -27 -96 0 -134
14 -66 24 17 3 43 8 57 10 30 5 109 0 116 -7z m-2695 -52 c19 -55 24 -105 10
-105 -17 0 -112 112 -109 128 3 16 40 32 67 29 8 -1 22 -24 32 -52z m326 49
c-3 -3 -12 -4 -19 -1 -8 3 -5 6 6 6 11 1 17 -2 13 -5z m821 -18 c5 -22 -13
-36 -45 -36 -17 0 -23 6 -23 23 0 31 9 39 40 35 15 -2 26 -10 28 -22z m-1480
-1 c-11 -12 -108 -18 -108 -7 0 6 23 12 53 14 54 3 64 2 55 -7z m1390 -12 c3
-19 -1 -23 -25 -23 -38 0 -57 14 -50 35 11 26 71 16 75 -12z m597 17 c3 -5 -1
-25 -9 -44 -11 -25 -22 -36 -46 -41 -42 -9 -51 2 -37 45 8 23 20 36 37 41 37
10 48 10 55 -1z m1158 -1 c47 -13 53 -44 7 -35 -16 3 -43 9 -60 12 -29 5 -37
14 -23 27 9 10 32 9 76 -4z m-3324 -5 c56 -12 30 -33 -43 -36 -26 -1 -44 5
-59 20 l-21 22 46 0 c25 0 60 -3 77 -6z m1379 -16 c3 -14 -3 -18 -27 -18 -34
0 -51 18 -30 31 21 14 53 6 57 -13z m90 0 c3 -15 -4 -18 -32 -18 -34 0 -47 15
-29 34 13 13 58 1 61 -16z m1436 12 c-5 -5 -43 -18 -84 -28 -168 -43 -190 -37
-34 8 110 31 133 35 118 20z m-3035 -25 c18 -17 8 -30 -30 -39 -31 -7 -65 24
-55 50 5 13 14 15 39 10 17 -4 38 -13 46 -21z m1116 15 c4 -6 -6 -10 -24 -10
-16 0 -33 5 -36 10 -4 6 6 10 24 10 16 0 33 -4 36 -10z m105 -5 c11 -13 8 -15
-13 -15 -34 0 -58 10 -51 21 8 14 50 10 64 -6z m98 -2 c2 -9 -8 -13 -32 -13
-34 0 -44 8 -29 24 11 11 56 2 61 -11z m100 0 c2 -9 -8 -13 -32 -13 -26 0 -36
4 -36 16 0 19 61 16 68 -3z m762 -12 c0 -16 -7 -37 -16 -45 -17 -17 -59 -22
-68 -7 -9 15 15 70 32 74 43 11 52 7 52 -22z m-1625 -42 c26 -33 44 -64 39
-69 -5 -4 -25 -10 -44 -14 -33 -6 -38 -3 -79 45 l-43 50 23 25 c12 13 30 24
39 24 9 0 39 -27 65 -61z m1521 16 c-6 -25 -27 -32 -60 -19 -27 10 -19 43 12
50 15 3 32 7 37 8 14 4 18 -11 11 -39z m-1786 25 c-8 -5 -24 -10 -35 -10 -17
0 -17 2 -5 10 8 5 24 10 35 10 17 0 17 -2 5 -10z m2992 -2 c-14 -14 -120 -26
-226 -27 -91 -1 -76 16 25 28 120 14 215 13 201 -1z m256 -7 c3 -8 -1 -12 -9
-9 -7 2 -15 10 -17 17 -3 8 1 12 9 9 7 -2 15 -10 17 -17z m-1563 -11 c0 -11
-9 -14 -34 -12 -40 3 -46 6 -36 22 10 17 70 8 70 -10z m1479 0 c21 -21 -10
-28 -77 -17 -57 10 -66 14 -55 25 15 15 115 9 132 -8z m-3253 -4 c-22 -26
-111 -31 -111 -6 0 9 34 16 89 19 28 1 31 -1 22 -13z m1671 2 c-8 -8 -17 -8
-34 0 -22 10 -21 11 12 11 26 1 31 -2 22 -11z m-542 -18 c11 -7 5 -10 -22 -10
-21 0 -38 5 -38 10 0 13 40 13 60 0z m98 -7 c2 -9 -7 -13 -27 -13 -30 0 -46
11 -34 24 11 11 56 2 61 -11z m90 0 c2 -9 -8 -13 -32 -13 -34 0 -44 8 -29 24
11 11 56 2 61 -11z m90 0 c2 -9 -8 -13 -32 -13 -34 0 -44 8 -29 24 11 11 56 2
61 -11z m90 0 c2 -9 -8 -13 -32 -13 -34 0 -44 8 -29 24 11 11 56 2 61 -11z
m92 -4 c0 -5 -16 -9 -35 -9 -32 0 -43 8 -30 22 8 8 65 -3 65 -13z m667 -16
c-10 -59 -22 -65 -92 -47 -101 26 -100 46 6 68 94 21 93 21 86 -21z m1114 1
c15 -18 -4 -19 -50 -3 -30 11 -37 19 -25 32 8 8 61 -12 75 -29z m-3507 20 c24
-9 19 -22 -15 -40 -25 -12 -37 -14 -55 -5 -30 13 -30 25 -1 39 26 12 49 14 71
6z m171 -4 c6 -10 -51 -40 -75 -40 -31 0 18 36 67 49 1 1 5 -4 8 -9z m901 -8
c-10 -2 -22 0 -28 6 -6 6 0 7 19 4 21 -5 23 -7 9 -10z m724 8 c12 -8 9 -10
-12 -10 -16 0 -28 5 -28 10 0 13 20 13 40 0z m1330 1 c0 -12 -67 -19 -220 -25
-128 -4 -111 8 31 23 117 12 189 13 189 2z m-2735 -51 c27 -33 25 -42 -10 -52
-61 -16 -84 11 -60 69 13 32 17 34 32 22 10 -8 27 -25 38 -39z m1495 40 c12
-8 9 -10 -12 -10 -16 0 -28 5 -28 10 0 13 20 13 40 0z m1462 -5 c39 -15 4 -27
-61 -20 -88 9 -112 15 -105 27 7 11 134 5 166 -7z m-2167 -5 c4 -6 -6 -10 -24
-10 -16 0 -33 5 -36 10 -4 6 6 10 24 10 16 0 33 -4 36 -10z m1020 1 c8 -14
-12 -23 -36 -16 -17 6 -19 9 -8 16 18 11 36 11 44 0z m-2011 -22 c-26 -28 -51
-41 -59 -29 -3 5 11 18 32 29 48 25 50 25 27 0z m1264 -17 c2 -8 -8 -12 -27
-12 -29 0 -41 16 -25 33 8 8 47 -8 52 -21z m1597 18 c-3 -6 -42 -9 -88 -8
l-82 2 70 6 c39 4 78 7 88 8 10 1 15 -2 12 -8z m435 -18 c24 -16 24 -17 4 -20
-28 -4 -94 23 -94 38 0 15 57 3 90 -18z m-3577 0 c13 -14 14 -21 5 -30 -17
-17 -35 -15 -42 4 -17 43 7 60 37 26z m154 2 c2 -7 -10 -22 -27 -34 -25 -18
-34 -19 -45 -10 -21 18 -19 27 13 44 30 17 53 17 59 0z m1302 7 c20 -13 -3
-23 -33 -15 -14 3 -23 10 -20 15 7 11 35 11 53 0z m175 0 c7 -11 -41 -24 -55
-16 -5 4 -7 11 -4 16 8 12 52 12 59 0z m86 -1 c0 -5 -14 -10 -31 -10 -17 0
-28 4 -24 10 3 6 17 10 31 10 13 0 24 -4 24 -10z m71 -1 c-16 -6 -28 -6 -35 1
-7 7 1 10 25 9 32 0 33 -1 10 -10z m186 5 c-3 -3 -12 -4 -19 -1 -8 3 -5 6 6 6
11 1 17 -2 13 -5z m-1677 -29 c-13 -14 -26 -22 -29 -19 -3 3 5 14 18 25 33 27
39 24 11 -6z m1773 18 c-7 -2 -21 -2 -30 0 -10 3 -4 5 12 5 17 0 24 -2 18 -5z
m824 1 c-3 -3 -12 -4 -19 -1 -8 3 -5 6 6 6 11 1 17 -2 13 -5z m481 0 c12 -4
22 -11 22 -17 0 -11 -125 -3 -175 12 -24 7 -14 9 50 10 44 0 90 -2 103 -5z
m-2658 -47 c0 -5 -7 -4 -15 3 -8 7 -15 20 -15 29 1 13 3 13 15 -3 8 -11 15
-24 15 -29z m570 33 c0 -5 -6 -10 -14 -10 -8 0 -18 5 -21 10 -3 6 3 10 14 10
12 0 21 -4 21 -10z m-90 -10 c12 -8 11 -10 -7 -10 -12 0 -25 5 -28 10 -8 13
15 13 35 0z m175 0 c4 -6 -7 -10 -25 -10 -18 0 -29 4 -25 10 3 6 15 10 25 10
10 0 22 -4 25 -10z m428 -5 c1 -5 -10 -11 -25 -13 -16 -2 -28 1 -28 7 0 20 49
26 53 6z m87 5 c0 -5 -11 -10 -25 -10 -14 0 -25 5 -25 10 0 6 11 10 25 10 14
0 25 -4 25 -10z m90 0 c0 -5 -11 -10 -25 -10 -14 0 -25 5 -25 10 0 6 11 10 25
10 14 0 25 -4 25 -10z m1017 4 c-3 -3 -12 -4 -19 -1 -8 3 -5 6 6 6 11 1 17 -2
13 -5z m541 -20 c34 -14 43 -34 15 -34 -17 0 -98 26 -115 36 -5 3 -6 10 -2 15
7 11 52 4 102 -17z m-3338 3 c0 -8 -11 -24 -25 -37 -20 -19 -28 -21 -38 -11
-9 10 -6 17 16 37 31 27 47 31 47 11z m480 -20 c13 -24 13 -29 0 -37 -27 -17
-59 -11 -85 17 -32 35 -31 41 3 46 49 8 66 2 82 -26z m1027 27 c-3 -3 -12 -4
-19 -1 -8 3 -5 6 6 6 11 1 17 -2 13 -5z m1951 -10 c33 -23 27 -37 -8 -19 -16
9 -30 20 -30 25 0 14 12 12 38 -6z m-2398 -4 c0 -5 -4 -10 -10 -10 -5 0 -10 5
-10 10 0 6 5 10 10 10 6 0 10 -4 10 -10z m300 -7 c6 -5 -21 -23 -35 -23 -19 0
-38 18 -31 29 6 10 52 6 66 -6z m1749 11 c17 -4 31 -11 31 -16 0 -10 -100 -3
-161 12 -29 7 -23 8 32 9 37 1 81 -2 98 -5z m-3250 -13 c12 -8 13 -14 3 -36
-13 -28 -29 -29 -46 -3 -7 12 -6 21 3 32 15 18 21 19 40 7z m1126 -9 c-3 -3
-11 0 -18 7 -9 10 -8 11 6 5 10 -3 15 -9 12 -12z m280 8 c3 -5 -3 -10 -14 -10
-11 0 -23 5 -26 10 -3 6 3 10 14 10 11 0 23 -4 26 -10z m140 0 c3 -5 -1 -10
-10 -10 -9 0 -13 5 -10 10 3 6 8 10 10 10 2 0 7 -4 10 -10z m-1040 -26 c27
-30 25 -41 -12 -55 -29 -11 -65 7 -83 41 -9 17 -7 22 12 30 38 15 58 11 83
-16z m2658 10 c26 -3 47 -10 47 -15 0 -12 -21 -11 -125 7 -152 26 -114 30 78
8z m261 -8 c40 -12 61 -36 31 -36 -16 0 -126 29 -134 36 -1 1 0 7 4 13 6 11
21 9 99 -13z m-3244 6 c0 -16 -32 -52 -46 -52 -20 0 -18 10 8 37 22 23 38 30
38 15z m1140 -2 c8 -5 11 -12 8 -16 -11 -10 -60 5 -53 16 8 12 26 12 45 0z
m340 -4 c0 -19 -39 -31 -53 -17 -7 7 -3 13 14 20 34 14 39 13 39 -3z m75 4 c4
-6 -7 -10 -25 -10 -18 0 -29 4 -25 10 3 6 15 10 25 10 10 0 22 -4 25 -10z m72
4 c-3 -3 -12 -4 -19 -1 -8 3 -5 6 6 6 11 1 17 -2 13 -5z m1797 -28 c16 -11 25
-21 18 -24 -16 -5 -94 37 -87 48 7 11 31 3 69 -24z m-2024 14 c0 -5 -7 -10
-16 -10 -8 0 -12 5 -9 10 3 6 10 10 16 10 5 0 9 -4 9 -10z m-1191 -29 c39 -36
39 -44 0 -58 -36 -14 -62 -5 -79 27 -15 28 -12 40 13 50 32 13 32 13 66 -19z
m839 23 c24 -7 31 -24 9 -24 -15 0 -57 29 -42 30 6 0 20 -3 33 -6z m672 -4
c-20 -13 -40 -13 -40 0 0 6 12 10 28 10 21 0 24 -2 12 -10z m633 -23 c-3 -5
-9 -3 -14 4 -4 7 -5 17 -2 22 3 5 9 3 14 -4 4 -7 5 -17 2 -22z m572 12 c22 -7
16 -7 -24 -3 -30 3 -62 9 -70 14 -19 11 47 3 94 -11z m-3046 2 c12 -8 13 -14
3 -35 -13 -28 -39 -35 -48 -12 -6 15 12 56 24 56 4 0 13 -4 21 -9z m151 -1 c0
-5 -5 -10 -11 -10 -5 0 -7 5 -4 10 3 6 8 10 11 10 2 0 4 -4 4 -10z m946 -5
c10 -8 15 -14 9 -14 -5 0 -19 6 -29 14 -11 8 -15 15 -10 15 6 0 19 -7 30 -15z
m330 0 c18 -14 17 -14 -13 -15 -31 0 -41 9 -26 23 10 10 17 9 39 -8z m324 5
c0 -5 -12 -10 -26 -10 -14 0 -23 4 -19 10 3 6 15 10 26 10 10 0 19 -4 19 -10z
m1573 -16 c27 -9 45 -20 40 -24 -10 -11 -173 30 -173 43 0 12 68 2 133 -19z
m-2713 -63 c-32 -15 -33 -15 -56 14 -30 38 -30 41 4 53 24 9 30 6 56 -21 l29
-31 -33 -15z m750 69 c0 -5 -6 -10 -14 -10 -8 0 -18 5 -21 10 -3 6 3 10 14 10
12 0 21 -4 21 -10z m307 4 c-3 -3 -12 -4 -19 -1 -8 3 -5 6 6 6 11 1 17 -2 13
-5z m-389 -22 c2 -7 -7 -12 -22 -12 -27 0 -35 15 -13 23 17 7 30 3 35 -11z
m562 8 c-20 -13 -33 -13 -25 0 3 6 14 10 23 10 15 0 15 -2 2 -10z m1670 -8
c34 -17 41 -41 10 -34 -34 8 -80 32 -80 41 0 16 30 13 70 -7z m-3610 -23 c0
-11 -4 -17 -10 -14 -5 3 -10 15 -10 26 0 11 5 17 10 14 6 -3 10 -15 10 -26z
m270 -9 c-7 -17 -15 -28 -18 -26 -2 3 1 19 8 36 7 17 15 28 18 26 2 -3 -1 -19
-8 -36z m1350 19 c0 -5 -11 -9 -25 -9 -28 0 -34 16 -7 23 20 4 32 -1 32 -14z
m70 11 c0 -5 -12 -10 -26 -10 -14 0 -23 4 -19 10 3 6 15 10 26 10 10 0 19 -4
19 -10z m1118 -32 c39 -16 70 -33 67 -37 -2 -5 -31 -11 -64 -14 -33 -4 -78 -9
-100 -13 l-39 -6 -7 45 c-4 25 -4 51 0 57 9 15 52 5 143 -32z m307 32 c8 -13
-5 -13 -25 0 -13 8 -13 10 2 10 9 0 20 -4 23 -10z m263 -21 c18 -6 30 -14 27
-19 -6 -10 -132 23 -147 38 -11 11 65 -1 120 -19z m-2743 -48 c-23 -22 -61
-22 -88 -1 -35 28 -34 38 6 55 31 13 33 12 62 -15 19 -19 26 -33 20 -39z m661
55 c10 -8 16 -17 12 -21 -8 -8 -48 13 -48 25 0 14 13 12 36 -4z m1349 -48 c6
-30 4 -38 -8 -38 -13 0 -27 44 -27 90 0 29 28 -13 35 -52z m1075 47 c20 -24 6
-28 -15 -5 -10 11 -13 20 -8 20 6 0 16 -7 23 -15z m-3495 -5 c3 -5 -1 -10 -9
-10 -9 0 -16 5 -16 10 0 6 4 10 9 10 6 0 13 -4 16 -10z m1545 0 c0 -14 -24
-23 -47 -17 -15 3 -14 6 7 15 32 14 40 14 40 2z m1502 -16 c46 -15 77 -29 71
-31 -16 -6 -162 37 -169 49 -8 13 10 10 98 -18z m-2047 6 c3 -5 1 -10 -4 -10
-6 0 -11 5 -11 10 0 6 2 10 4 10 3 0 8 -4 11 -10z m289 4 c22 -9 20 -24 -3
-24 -21 0 -34 13 -24 24 8 7 8 7 27 0z m396 -4 c-20 -13 -33 -13 -25 0 3 6 14
10 23 10 15 0 15 -2 2 -10z m640 -48 c0 -23 -4 -32 -12 -30 -15 5 -23 52 -13
76 9 25 25 -4 25 -46z m40 49 c0 -5 3 -23 6 -40 4 -20 3 -31 -5 -31 -14 0 -34
49 -27 67 6 14 26 18 26 4z m980 -11 c43 -22 55 -46 18 -34 -31 9 -98 43 -98
49 0 12 44 3 80 -15z m-1720 0 c0 -11 -48 -25 -57 -16 -3 3 5 10 18 15 32 13
39 13 39 1z m-1810 -9 c0 -6 -4 -13 -10 -16 -5 -3 -10 1 -10 9 0 9 5 16 10 16
6 0 10 -4 10 -9z m106 -7 c-3 -9 -6 -18 -6 -20 0 -2 -7 -4 -15 -4 -18 0 -19
12 -3 28 17 17 31 15 24 -4z m204 1 c0 -8 -7 -15 -15 -15 -16 0 -20 12 -8 23
11 12 23 8 23 -8z m165 -16 c28 -34 25 -44 -16 -54 -19 -5 -34 0 -57 20 -39
33 -39 38 -4 52 42 17 48 15 77 -18z m875 16 c0 -8 -7 -15 -15 -15 -16 0 -20
12 -8 23 11 12 23 8 23 -8z m1107 -37 c-2 -13 -4 -5 -4 17 -1 22 1 32 4 23 2
-10 2 -28 0 -40z m1222 30 c26 -17 31 -24 19 -26 -18 -4 -68 25 -68 39 0 14 9
11 49 -13z m-3525 -35 c-12 -34 -28 -36 -32 -5 -4 29 17 57 32 42 6 -6 7 -19
0 -37z m947 30 c13 -15 12 -15 -8 -4 -24 12 -29 21 -14 21 5 0 15 -7 22 -17z
m64 -1 c-3 -3 -11 0 -18 7 -9 10 -8 11 6 5 10 -3 15 -9 12 -12z m405 3 c0 -9
-9 -15 -25 -15 -24 0 -32 10 -18 23 12 13 43 7 43 -8z m300 5 c0 -5 -8 -10
-17 -10 -15 0 -16 2 -3 10 19 12 20 12 20 0z m1355 -16 l30 -14 -31 4 c-18 3
-47 12 -65 20 l-34 16 35 -6 c19 -4 49 -13 65 -20z m290 -12 c28 -15 29 -17 8
-20 -26 -4 -113 32 -113 47 0 12 62 -4 105 -27z m-2789 -8 c12 -45 -23 -61
-50 -22 -21 29 -20 46 2 50 27 6 42 -2 48 -28z m554 14 c0 -13 -23 -5 -28 10
-2 7 2 10 12 6 9 -3 16 -11 16 -16z m123 15 c-7 -2 -19 -2 -25 0 -7 3 -2 5 12
5 14 0 19 -2 13 -5z m-615 -28 c-3 -3 -9 2 -12 12 -6 14 -5 15 5 6 7 -7 10
-15 7 -18z m232 10 c7 -9 8 -15 2 -15 -5 0 -12 7 -16 15 -3 8 -4 15 -2 15 2 0
9 -7 16 -15z m630 0 c0 -10 -10 -15 -27 -15 l-28 1 25 14 c31 18 30 18 30 0z
m55 5 c-3 -5 -10 -10 -16 -10 -5 0 -9 5 -9 10 0 6 7 10 16 10 8 0 12 -4 9 -10z
m1480 -22 c5 -5 -6 -3 -25 3 -19 6 -39 16 -45 21 -5 5 6 3 25 -3 19 -6 39 -16
45 -21z m-3178 0 c-3 -8 -6 -5 -6 6 -1 11 2 17 5 13 3 -3 4 -12 1 -19z m363
-10 c30 -30 31 -33 14 -45 -26 -19 -51 -16 -84 9 -37 27 -38 43 -2 56 39 15
37 15 72 -20z m1392 10 c-6 -6 -15 -8 -19 -4 -4 4 -1 11 7 16 19 12 27 3 12
-12z m1192 -12 c40 -18 76 -38 79 -44 9 -13 -52 -28 -196 -47 -157 -20 -187
-20 -187 3 0 9 -3 26 -5 37 -9 36 10 46 121 65 60 10 110 18 112 19 2 0 36
-14 76 -33z m490 4 c47 -20 66 -48 24 -34 -49 15 -106 43 -113 55 -10 15 24 7
89 -21z m206 10 c39 -20 53 -40 28 -40 -19 0 -78 38 -78 50 0 14 5 13 50 -10z
m-3580 -36 c0 -12 -4 -26 -10 -29 -13 -8 -34 40 -26 60 9 24 36 1 36 -31z
m134 37 c3 -5 -1 -11 -9 -15 -9 -3 -15 0 -15 9 0 16 16 20 24 6z m441 -18 c23
-26 24 -29 8 -40 -27 -21 -61 -15 -79 12 -9 14 -15 27 -13 29 9 8 45 25 51 26
4 0 19 -12 33 -27z m845 17 c0 -5 -9 -10 -20 -10 -11 0 -20 5 -20 10 0 6 9 10
20 10 11 0 20 -4 20 -10z m-490 -10 c0 -5 -2 -10 -4 -10 -3 0 -8 5 -11 10 -3
6 -1 10 4 10 6 0 11 -4 11 -10z m250 0 c0 -5 -4 -10 -10 -10 -5 0 -10 5 -10
10 0 6 5 10 10 10 6 0 10 -4 10 -10z m470 0 c0 -5 -10 -10 -22 -10 -19 0 -20
2 -8 10 19 13 30 13 30 0z m-1750 -60 c7 -22 11 -41 9 -43 -2 -2 -62 -38 -134
-80 -184 -110 -331 -223 -471 -362 -206 -204 -338 -406 -410 -625 -24 -73 -28
-105 -32 -236 -5 -173 7 -235 64 -348 19 -38 33 -70 32 -72 -9 -8 -115 132
-144 191 -55 112 -67 180 -62 330 5 110 10 145 36 225 91 277 283 530 586 774
148 118 479 314 501 296 7 -5 18 -28 25 -50z m1220 50 c13 -8 13 -10 -2 -10
-9 0 -20 5 -23 10 -8 13 5 13 25 0z m170 0 c0 -5 -4 -10 -10 -10 -5 0 -10 5
-10 10 0 6 5 10 10 10 6 0 10 -4 10 -10z m35 0 c3 -5 1 -10 -4 -10 -6 0 -11 5
-11 10 0 6 2 10 4 10 3 0 8 -4 11 -10z m165 -5 c-13 -16 -40 -20 -40 -7 0 14
12 22 33 22 16 0 17 -3 7 -15z m1836 -16 c47 -20 72 -46 33 -34 -33 11 -119
54 -119 61 0 7 31 -3 86 -27z m364 16 c7 -9 10 -18 7 -22 -8 -7 -37 15 -37 28
0 14 16 11 30 -6z m-3211 -27 c28 -30 30 -34 14 -45 -9 -7 -26 -13 -37 -13
-20 0 -66 36 -66 51 0 6 44 36 57 39 1 0 16 -15 32 -32z m591 10 c0 -13 -23
-5 -28 10 -2 7 2 10 12 6 9 -3 16 -11 16 -16z m645 12 c-3 -5 -11 -10 -16 -10
-6 0 -7 5 -4 10 3 6 11 10 16 10 6 0 7 -4 4 -10z m787 -50 c2 -29 0 -35 -17
-35 -24 0 -32 43 -14 76 14 27 25 12 31 -41z m49 33 c12 -32 3 -76 -14 -70
-15 5 -22 97 -7 97 6 0 15 -12 21 -27z m1006 2 c41 -25 56 -45 31 -45 -17 0
-98 50 -98 60 0 16 21 11 67 -15z m-3387 -14 c0 -28 -15 -49 -27 -38 -8 8 7
67 18 67 5 0 9 -13 9 -29z m588 -7 c-4 -3 -12 5 -18 18 -12 22 -12 22 6 6 10
-10 15 -20 12 -24z m32 16 c6 -11 8 -20 6 -20 -3 0 -10 9 -16 20 -6 11 -8 20
-6 20 3 0 10 -9 16 -20z m778 8 c-3 -7 -15 -15 -28 -16 -21 -3 -22 -2 -11 12
16 19 44 21 39 4z m212 2 c0 -5 -8 -10 -17 -10 -15 0 -16 2 -3 10 19 12 20 12
20 0z m1487 -20 c36 -17 64 -33 61 -36 -7 -7 -108 35 -128 53 -22 20 -6 16 67
-17z m-3147 10 c0 -5 -4 -10 -10 -10 -5 0 -10 5 -10 10 0 6 5 10 10 10 6 0 10
-4 10 -10z m1140 0 c0 -5 -5 -10 -11 -10 -5 0 -7 5 -4 10 3 6 8 10 11 10 2 0
4 -4 4 -10z m150 -11 c0 -5 -7 -9 -15 -9 -15 0 -20 12 -9 23 8 8 24 -1 24 -14z
m896 -24 c-4 -19 -12 -35 -17 -35 -6 0 -8 10 -4 23 4 12 9 30 12 40 9 32 16
10 9 -28z m40 -11 c-4 -14 -11 -22 -15 -19 -9 5 -6 33 6 65 9 23 16 -16 9 -46z
m44 16 c0 -27 -4 -40 -14 -40 -9 0 -12 9 -9 28 11 64 23 71 23 12z m52 23 c6
-29 -4 -64 -16 -60 -13 4 -20 42 -12 63 7 19 24 18 28 -3z m-2222 -43 c-25
-16 -30 -12 -30 22 l0 32 23 -22 c19 -19 20 -24 7 -32z m466 24 c23 -34 4 -56
-20 -23 -9 13 -16 29 -16 36 0 21 18 15 36 -13z m44 -17 c0 -16 -18 3 -23 25
-6 22 -5 22 8 4 8 -11 15 -24 15 -29z m258 25 c2 -7 -2 -10 -12 -6 -9 3 -16
11 -16 16 0 13 23 5 28 -10z m42 8 c0 -5 -2 -10 -4 -10 -3 0 -8 5 -11 10 -3 6
-1 10 4 10 6 0 11 -4 11 -10z m610 0 c0 -12 -40 -33 -48 -25 -4 4 2 13 12 21
23 16 36 18 36 4z m626 -26 c-4 -14 -9 -24 -12 -21 -3 2 -2 17 2 31 3 15 9 25
11 22 3 -3 2 -17 -1 -32z m939 10 c30 -15 58 -31 61 -36 5 -8 -113 47 -125 58
-11 10 14 2 64 -22z m480 1 c19 -16 25 -24 15 -25 -19 0 -60 28 -60 41 0 15
13 10 45 -16z m-2490 5 c3 -5 2 -10 -4 -10 -5 0 -13 5 -16 10 -3 6 -2 10 4 10
5 0 13 -4 16 -10z m501 -16 c-30 -21 -44 -16 -17 7 13 11 27 17 30 13 3 -3 -3
-12 -13 -20z m1829 -1 c21 -15 34 -28 28 -30 -13 -5 -89 32 -98 47 -12 20 31
9 70 -17z m-3465 5 c0 -7 -5 -20 -10 -28 -12 -19 -35 2 -27 24 7 19 37 21 37
4z m325 -18 c16 -16 27 -31 24 -34 -35 -31 -67 -27 -103 13 -21 23 -21 23 9
39 30 17 39 15 70 -18z m525 10 c8 -16 8 -18 -4 -14 -17 6 -30 34 -16 34 5 0
14 -9 20 -20z m226 5 c10 -8 14 -15 7 -15 -19 0 -43 11 -43 21 0 13 14 11 36
-6z m335 -8 c-13 -13 -26 -3 -16 12 3 6 11 8 17 5 6 -4 6 -10 -1 -17z m1709
-13 c0 -2 -13 2 -30 11 -16 9 -30 18 -30 21 0 2 14 -2 30 -11 17 -9 30 -18 30
-21z m-2544 9 c19 -26 17 -41 -6 -48 -24 -8 -70 18 -70 39 0 28 56 34 76 9z
m1129 7 c-3 -5 -11 -10 -16 -10 -6 0 -7 5 -4 10 3 6 11 10 16 10 6 0 7 -4 4
-10z m1756 -57 c21 -24 -23 -14 -65 15 -60 41 -58 60 3 27 28 -16 56 -34 62
-42z m-3413 13 c-2 -12 -10 -21 -18 -21 -16 0 -25 28 -16 52 9 23 38 -4 34
-31z m980 26 c2 -7 -2 -10 -12 -6 -9 3 -16 11 -16 16 0 13 23 5 28 -10z m2007
-16 c33 -18 59 -37 58 -42 -5 -24 -297 -72 -463 -76 l-105 -3 -3 41 c-2 25 2
45 10 51 7 5 63 15 123 22 61 7 139 18 175 26 108 21 138 18 205 -19z m584
-10 c14 -14 21 -26 16 -26 -18 0 -75 43 -75 56 0 19 26 6 59 -30z m-2839 1 c0
-5 -4 -5 -10 -2 -5 3 -10 14 -10 23 0 15 2 15 10 2 5 -8 10 -19 10 -23z m430
23 c0 -5 -5 -10 -11 -10 -5 0 -7 5 -4 10 3 6 8 10 11 10 2 0 4 -4 4 -10z m270
0 c0 -5 -4 -10 -10 -10 -5 0 -10 5 -10 10 0 6 5 10 10 10 6 0 10 -4 10 -10z
m-1550 -21 c0 -24 -23 -21 -28 4 -2 10 3 17 12 17 10 0 16 -9 16 -21z m557 -1
c30 -28 29 -46 -3 -54 -20 -5 -32 -1 -52 20 -26 25 -26 26 -7 41 27 20 35 19
62 -7z m868 12 c-3 -5 -13 -10 -21 -10 -8 0 -14 5 -14 10 0 6 9 10 21 10 11 0
17 -4 14 -10z m187 -12 c-6 -6 -15 -8 -19 -4 -4 4 -1 11 7 16 19 12 27 3 12
-12z m298 7 c-7 -9 -15 -13 -17 -11 -7 7 7 26 19 26 6 0 6 -6 -2 -15z m1537
-22 c42 -23 63 -43 43 -43 -16 0 -120 61 -120 71 0 10 17 3 77 -28z m-3142 -3
l28 -29 -27 -13 c-23 -10 -32 -9 -53 2 -37 22 -52 48 -33 60 27 17 56 11 85
-20z m710 10 c10 -11 15 -20 11 -20 -14 0 -46 21 -46 30 0 16 16 11 35 -10z
m55 10 c0 -5 -4 -10 -10 -10 -5 0 -10 5 -10 10 0 6 5 10 10 10 6 0 10 -4 10
-10z m150 -11 c0 -5 -4 -9 -10 -9 -5 0 -10 7 -10 16 0 8 5 12 10 9 6 -3 10
-10 10 -16z m620 6 c-7 -9 -15 -13 -17 -11 -7 7 7 26 19 26 6 0 6 -6 -2 -15z
m160 11 c0 -3 -4 -8 -10 -11 -5 -3 -10 -1 -10 4 0 6 5 11 10 11 6 0 10 -2 10
-4z m-1214 -53 c-4 -4 -14 1 -22 11 -22 31 -17 43 8 19 12 -13 18 -26 14 -30z
m379 27 c14 -16 15 -20 4 -20 -16 0 -39 19 -39 32 0 14 16 9 35 -12z m520 10
c3 -5 -1 -10 -10 -10 -9 0 -13 5 -10 10 3 6 8 10 10 10 2 0 7 -4 10 -10z m375
-11 c-7 -11 -14 -18 -17 -15 -3 3 0 12 7 21 18 21 23 19 10 -6z m1603 -17 c39
-35 11 -43 -33 -10 -37 27 -42 55 -7 37 12 -6 30 -18 40 -27z m105 18 c7 -11
9 -20 4 -20 -10 0 -32 22 -32 32 0 15 15 8 28 -12z m-3812 -25 c7 -19 14 -41
14 -48 0 -8 -35 -36 -77 -62 -216 -132 -486 -372 -621 -551 -185 -247 -273
-472 -273 -704 0 -152 25 -247 91 -351 17 -25 30 -50 30 -54 0 -13 -48 34
-100 100 -97 123 -133 229 -132 400 2 440 364 917 962 1267 36 21 71 38 78 38
7 0 20 -16 28 -35z m100 -14 c-12 -19 -34 -12 -38 14 -3 13 -3 27 0 30 10 9
45 -32 38 -44z m674 34 c0 -8 -2 -15 -4 -15 -2 0 -6 7 -10 15 -3 8 -1 15 4 15
6 0 10 -7 10 -15z m228 -10 c-3 -3 -9 2 -12 12 -6 14 -5 15 5 6 7 -7 10 -15 7
-18z m392 15 c0 -5 -5 -10 -11 -10 -5 0 -7 5 -4 10 3 6 8 10 11 10 2 0 4 -4 4
-10z m90 0 c0 -5 -5 -10 -11 -10 -5 0 -7 5 -4 10 3 6 8 10 11 10 2 0 4 -4 4
-10z m45 0 c-3 -5 -10 -10 -16 -10 -5 0 -9 5 -9 10 0 6 7 10 16 10 8 0 12 -4
9 -10z m435 -5 c-7 -9 -15 -13 -17 -11 -7 7 7 26 19 26 6 0 6 -6 -2 -15z m90
-6 c-7 -11 -14 -18 -17 -15 -3 3 0 12 7 21 18 21 23 19 10 -6z m78 -8 c-7 -12
-16 -21 -21 -21 -4 0 0 11 9 25 20 30 31 26 12 -4z m262 0 c0 -39 -9 -61 -26
-61 -13 0 -12 33 2 78 7 23 24 12 24 -17z m50 -25 c0 -47 -5 -57 -25 -50 -13
5 -12 51 1 92 8 27 24 -1 24 -42z m120 -7 c0 -42 -13 -57 -35 -39 -18 15 -20
71 -3 88 19 19 38 -6 38 -49z m51 40 c6 -12 8 -36 4 -55 -11 -61 -35 -35 -35
37 0 43 13 51 31 18z m827 -11 c31 -17 50 -34 44 -36 -13 -4 -97 41 -107 58
-10 17 5 11 63 -22z m-2458 -26 c-14 -5 -30 16 -30 38 1 10 7 7 21 -10 14 -17
17 -26 9 -28z m800 38 c0 -5 -5 -10 -11 -10 -5 0 -7 5 -4 10 3 6 8 10 11 10 2
0 4 -4 4 -10z m380 -26 c-18 -21 -24 -10 -8 15 7 12 14 17 16 11 2 -6 -2 -17
-8 -26z m40 -4 c-16 -31 -23 -18 -8 15 7 15 14 23 16 17 2 -6 -2 -21 -8 -32z
m40 -9 c-19 -37 -30 -22 -12 15 11 23 18 31 20 21 2 -9 -2 -25 -8 -36z m41
-14 c-8 -8 -11 -2 -11 19 0 40 14 54 18 19 2 -15 -1 -32 -7 -38z m59 35 c0
-31 -23 -71 -33 -55 -8 12 13 83 25 83 4 0 8 -13 8 -28z m152 6 c5 -35 -3 -69
-16 -65 -12 4 -20 51 -12 73 8 21 24 17 28 -8z m-2282 -23 c0 -38 -13 -46 -29
-18 -6 11 -6 24 0 35 16 29 29 21 29 -17z m315 11 l29 -23 -33 -17 c-32 -17
-33 -17 -68 10 -34 25 -35 28 -18 41 27 19 56 16 90 -11z m228 -1 c17 -23 17
-25 -2 -35 -30 -15 -44 -12 -65 16 -15 22 -16 28 -5 35 25 15 54 9 72 -16z
m407 -6 c0 -5 -7 -6 -15 -3 -8 4 -15 13 -15 21 0 13 3 13 15 3 8 -7 15 -16 15
-21z m425 21 c3 -5 -1 -10 -10 -10 -9 0 -13 5 -10 10 3 6 8 10 10 10 2 0 7 -4
10 -10z m1807 -21 c26 -17 48 -35 48 -41 0 -12 -75 30 -97 54 -24 27 -6 22 49
-13z m-2452 -18 c-1 -13 -3 -13 -15 3 -19 26 -19 42 0 26 8 -7 15 -20 15 -29z
m390 29 c0 -5 -4 -10 -10 -10 -5 0 -10 5 -10 10 0 6 5 10 10 10 6 0 10 -4 10
-10z m410 0 c0 -5 -7 -10 -16 -10 -8 0 -12 5 -9 10 3 6 10 10 16 10 5 0 9 -4
9 -10z m1921 -22 c34 -25 40 -33 26 -36 -19 -4 -87 42 -87 59 0 16 16 10 61
-23z m155 -25 c-8 -9 -46 32 -46 50 0 7 12 -1 27 -15 15 -15 23 -31 19 -35z
m-3552 32 c20 -15 15 -29 -15 -45 -17 -10 -19 -7 -19 25 0 38 5 42 34 20z
m1186 5 c0 -5 -4 -10 -10 -10 -5 0 -10 5 -10 10 0 6 5 10 10 10 6 0 10 -4 10
-10z m186 -17 c-10 -10 -19 5 -10 18 6 11 8 11 12 0 2 -7 1 -15 -2 -18z m159
8 c-3 -6 -11 -11 -17 -11 -6 0 -6 6 2 15 14 17 26 13 15 -4z m75 9 c0 -9 -32
-30 -46 -30 -4 0 1 9 11 20 19 21 35 26 35 10z m1453 -48 c21 -14 36 -30 34
-35 -4 -14 -59 -32 -191 -62 -84 -18 -166 -28 -316 -36 -112 -5 -209 -8 -215
-5 -15 5 -4 81 13 98 6 6 69 14 139 19 141 8 286 30 385 58 69 20 61 22 151
-37z m29 27 c26 -17 48 -33 48 -35 0 -11 -21 -1 -66 31 -61 43 -48 46 18 4z
m-2910 -55 c-26 -20 -56 -16 -81 10 -25 27 -21 43 13 56 16 6 28 1 53 -23 30
-28 31 -31 15 -43z m227 48 c21 -31 14 -52 -19 -52 -16 0 -67 46 -59 53 9 8
44 26 51 27 4 0 16 -13 27 -28z m1251 18 c0 -5 -4 -10 -10 -10 -5 0 -10 5 -10
10 0 6 5 10 10 10 6 0 10 -4 10 -10z m-1760 -66 c0 -13 -4 -24 -8 -24 -18 0
-32 26 -32 60 l1 35 19 -24 c11 -13 20 -34 20 -47z m710 15 c0 -16 -19 -9 -34
13 -21 30 -7 47 16 19 10 -13 18 -27 18 -32z m28 26 c-3 -3 -9 2 -12 12 -6 14
-5 15 5 6 7 -7 10 -15 7 -18z m170 13 c14 -14 16 -28 2 -28 -5 0 -14 9 -20 20
-12 22 -1 27 18 8z m202 2 c0 -5 -4 -10 -10 -10 -5 0 -10 5 -10 10 0 6 5 10
10 10 6 0 10 -4 10 -10z m330 6 c0 -3 -4 -8 -10 -11 -5 -3 -10 -1 -10 4 0 6 5
11 10 11 6 0 10 -2 10 -4z m100 -6 c0 -5 -5 -10 -11 -10 -5 0 -7 5 -4 10 3 6
8 10 11 10 2 0 4 -4 4 -10z m1957 -52 c14 -15 14 -18 1 -18 -19 0 -98 57 -98
71 0 13 74 -28 97 -53z m-2439 29 c2 -10 -3 -17 -12 -17 -10 0 -16 9 -16 21 0
24 23 21 28 -4z m302 19 c0 -3 -4 -8 -10 -11 -5 -3 -10 -1 -10 4 0 6 5 11 10
11 6 0 10 -2 10 -4z m420 -16 c-6 -11 -15 -20 -21 -20 -6 0 -6 7 1 20 6 11 15
20 21 20 6 0 6 -7 -1 -20z m45 -10 c-10 -11 -20 -18 -23 -15 -3 3 3 14 13 25
10 11 20 18 23 15 3 -3 -3 -14 -13 -25z m-955 -17 c0 -13 -3 -13 -15 -3 -8 7
-15 19 -15 27 0 13 3 13 15 3 8 -7 15 -19 15 -27z m630 27 c0 -5 -5 -10 -11
-10 -5 0 -7 5 -4 10 3 6 8 10 11 10 2 0 4 -4 4 -10z m2135 -20 c17 -18 23 -30
15 -30 -15 0 -60 39 -60 52 0 16 17 8 45 -22z m-2631 4 c18 -17 21 -34 7 -34
-15 0 -42 31 -36 41 8 12 11 12 29 -7z m411 6 c3 -5 -1 -10 -10 -10 -9 0 -13
5 -10 10 3 6 8 10 10 10 2 0 7 -4 10 -10z m491 -28 c-22 -23 -29 -10 -9 18 11
16 18 19 21 11 2 -7 -3 -20 -12 -29z m48 -4 c-9 -18 -19 -28 -21 -21 -5 13 27
67 34 59 3 -2 -3 -19 -13 -38z m-1519 5 c17 -25 17 -27 -1 -40 -27 -19 -40
-16 -63 15 -15 22 -17 32 -9 40 21 21 55 13 73 -15z m207 1 c10 -21 9 -27 -3
-35 -20 -12 -24 -12 -44 11 -9 10 -15 26 -12 35 10 24 46 18 59 -11z m538 16
c0 -5 -5 -10 -11 -10 -5 0 -7 5 -4 10 3 6 8 10 11 10 2 0 4 -4 4 -10z m370
-10 c-8 -5 -17 -7 -19 -4 -3 3 1 9 9 14 8 5 17 7 19 4 3 -3 -1 -9 -9 -14z m70
0 c-6 -11 -15 -20 -20 -20 -6 0 -5 9 2 20 7 11 16 20 21 20 4 0 3 -9 -3 -20z
m390 2 c0 -22 -26 -59 -35 -50 -6 6 21 68 30 68 3 0 5 -8 5 -18z m91 -45 c-15
-39 -35 -35 -27 5 3 17 12 38 19 46 10 13 12 13 15 -5 2 -10 -2 -31 -7 -46z
m1330 31 c57 -41 34 -49 -26 -8 -25 17 -45 33 -45 35 0 14 32 1 71 -27z
m-3537 -29 c18 -43 20 -41 -124 -148 -188 -139 -415 -369 -526 -531 -76 -112
-142 -242 -185 -365 -27 -78 -32 -108 -36 -225 -7 -172 6 -254 53 -348 20 -40
35 -75 32 -77 -3 -3 -30 21 -60 53 -101 105 -150 237 -150 402 -1 400 313 849
847 1210 65 44 122 77 126 72 5 -4 15 -23 23 -43z m46 12 c-1 -13 -3 -13 -15
3 -19 26 -19 42 0 26 8 -7 15 -20 15 -29z m95 30 c3 -5 1 -12 -5 -16 -5 -3
-10 1 -10 9 0 18 6 21 15 7z m156 -15 c27 -23 27 -25 10 -40 -25 -23 -41 -20
-81 14 -29 25 -32 31 -20 40 25 17 61 11 91 -14z m1489 -11 c-7 -8 -19 -15
-28 -15 -12 0 -10 6 9 26 24 26 41 16 19 -11z m375 8 c-7 -32 -22 -50 -31 -40
-9 9 16 67 28 67 6 0 7 -11 3 -27z m155 -29 c0 -32 -4 -44 -15 -44 -16 0 -18
8 -15 55 4 64 30 55 30 -11z m1202 -11 c12 -13 17 -23 12 -23 -16 0 -114 70
-114 81 0 14 74 -28 102 -58z m-2631 35 c11 -21 11 -22 -4 -9 -10 7 -17 17
-17 22 0 15 9 10 21 -13z m33 6 c3 -8 2 -12 -4 -9 -6 3 -10 10 -10 16 0 14 7
11 14 -7z m144 -8 c3 -12 -1 -17 -10 -14 -7 3 -15 13 -16 22 -3 12 1 17 10 14
7 -3 15 -13 16 -22z m1202 0 c0 -35 -10 -56 -26 -56 -16 0 -18 33 -4 61 15 26
30 24 30 -5z m174 -10 c3 -14 1 -37 -4 -51 -9 -23 -13 -25 -25 -15 -18 15 -20
71 -3 88 15 15 24 8 32 -22z m66 -15 c0 -53 -12 -70 -35 -51 -18 15 -20 71 -3
88 25 25 38 13 38 -37z m1205 19 c16 -16 26 -32 23 -35 -7 -7 -68 43 -68 56 0
17 16 9 45 -21z m-3035 -7 c20 -25 20 -28 4 -40 -18 -13 -41 -6 -64 22 -11 13
-10 18 6 30 26 20 29 19 54 -12z m550 17 c0 -5 -4 -10 -10 -10 -5 0 -10 5 -10
10 0 6 5 10 10 10 6 0 10 -4 10 -10z m601 -23 c-11 -12 -23 -19 -25 -16 -9 9
25 50 36 43 6 -4 2 -14 -11 -27z m549 -6 c0 -44 -12 -58 -30 -36 -15 18 -3 75
16 75 10 0 14 -12 14 -39z m184 1 c-11 -52 -15 -62 -25 -62 -13 0 -11 74 3 88
17 17 29 4 22 -26z m-2102 1 c25 -24 26 -27 10 -39 -25 -19 -43 -17 -69 8 -25
24 -30 44 -10 51 26 11 42 6 69 -20z m398 -24 c0 -16 -19 -9 -34 13 -21 30 -7
47 16 19 10 -13 18 -27 18 -32z m450 41 c0 -5 -2 -10 -4 -10 -3 0 -8 5 -11 10
-3 6 -1 10 4 10 6 0 11 -4 11 -10z m40 0 c0 -5 -4 -10 -10 -10 -5 0 -10 5 -10
10 0 6 5 10 10 10 6 0 10 -4 10 -10z m70 0 c0 -5 -2 -10 -4 -10 -3 0 -8 5 -11
10 -3 6 -1 10 4 10 6 0 11 -4 11 -10z m40 0 c0 -5 -4 -10 -10 -10 -5 0 -10 5
-10 10 0 6 5 10 10 10 6 0 10 -4 10 -10z m180 0 c0 -5 -5 -10 -11 -10 -5 0 -7
5 -4 10 3 6 8 10 11 10 2 0 4 -4 4 -10z m1835 -46 c23 -18 26 -24 12 -24 -10
0 -37 18 -60 41 -37 36 -38 39 -12 24 17 -9 44 -27 60 -41z m-2467 21 c-3 -3
-9 2 -12 12 -6 14 -5 15 5 6 7 -7 10 -15 7 -18z m2702 -36 c15 -27 -2 -24 -39
7 -42 35 -43 64 -1 34 17 -12 35 -30 40 -41z m-3552 33 c2 -7 -3 -12 -12 -12
-9 0 -16 7 -16 16 0 17 22 14 28 -4z m61 -6 l32 -24 -23 -16 c-21 -15 -24 -15
-35 1 -11 15 -19 63 -10 63 2 0 18 -11 36 -24z m962 11 c-1 -12 -15 -9 -19 4
-3 6 1 10 8 8 6 -3 11 -8 11 -12z m509 3 c0 -5 -5 -10 -11 -10 -5 0 -7 5 -4
10 3 6 8 10 11 10 2 0 4 -4 4 -10z m230 -19 c-6 -12 -15 -21 -21 -21 -10 0 -5
13 14 38 15 19 20 7 7 -17z m1490 -10 c33 -29 42 -42 34 -51 -17 -17 -175 -68
-284 -91 -74 -16 -147 -21 -335 -25 -150 -3 -245 -2 -254 5 -12 7 -13 19 -5
58 l9 48 205 7 c113 3 241 13 285 21 99 19 205 46 225 58 34 19 75 9 120 -30z
m416 -9 c-8 -7 -25 8 -37 31 -11 21 -10 21 15 -2 14 -14 24 -26 22 -29z
m-2311 28 c-3 -5 -10 -10 -16 -10 -5 0 -9 5 -9 10 0 6 7 10 16 10 8 0 12 -4 9
-10z m468 -10 c-6 -23 -31 -46 -40 -37 -7 8 24 57 36 57 5 0 7 -9 4 -20z
m-1375 -13 c17 -18 19 -26 10 -35 -18 -18 -43 -15 -63 8 -39 43 13 69 53 27z
m192 3 c21 -40 -18 -56 -44 -18 -8 12 -13 25 -10 30 10 15 43 8 54 -12z m191
3 c13 -16 12 -17 -3 -4 -10 7 -18 15 -18 17 0 8 8 3 21 -13z m136 2 c9 -25 -4
-29 -17 -6 -7 15 -7 21 0 21 6 0 13 -7 17 -15z m133 5 c0 -5 -4 -10 -10 -10
-5 0 -10 5 -10 10 0 6 5 10 10 10 6 0 10 -4 10 -10z m40 0 c0 -5 -4 -10 -10
-10 -5 0 -10 5 -10 10 0 6 5 10 10 10 6 0 10 -4 10 -10z m100 0 c0 -5 -4 -10
-10 -10 -5 0 -10 5 -10 10 0 6 5 10 10 10 6 0 10 -4 10 -10z m625 -31 c-16
-30 -35 -39 -35 -16 0 19 30 58 41 52 5 -4 2 -19 -6 -36z m-1915 4 c0 -25 -1
-26 -16 -11 -9 9 -13 21 -10 27 13 20 26 11 26 -16z m273 -1 l27 -28 -24 -13
c-21 -12 -28 -11 -55 8 -32 23 -40 46 -18 54 27 11 44 6 70 -21z m1183 0 c-8
-9 -19 -13 -22 -9 -10 9 16 38 28 31 6 -4 4 -13 -6 -22z m517 0 c-8 -23 -24
-42 -34 -42 -14 0 -11 23 7 48 17 25 37 21 27 -6z m1576 -9 c24 -24 32 -38 23
-41 -14 -4 -82 54 -82 70 0 18 24 6 59 -29z m-2709 -10 c0 -13 -3 -13 -15 -3
-8 7 -15 19 -15 27 0 13 3 13 15 3 8 -7 15 -19 15 -27z m750 27 c0 -5 -5 -10
-11 -10 -5 0 -7 5 -4 10 3 6 8 10 11 10 2 0 4 -4 4 -10z m440 -4 c0 -24 -19
-66 -30 -66 -14 0 -13 53 2 68 16 16 28 15 28 -2z m-1405 -16 c9 -10 15 -26
12 -35 -10 -24 -42 -18 -57 11 -12 22 -12 27 0 34 21 13 25 13 45 -10z m353
-3 c2 -10 -3 -17 -12 -17 -10 0 -16 9 -16 21 0 24 23 21 28 -4z m372 2 c0 -5
-7 -9 -15 -9 -15 0 -20 12 -9 23 8 8 24 -1 24 -14z m730 -5 c0 -32 -18 -66
-31 -59 -12 8 -12 41 1 66 15 27 30 24 30 -7z m1610 1 c13 -14 20 -28 17 -32
-8 -7 -57 35 -57 49 0 15 16 8 40 -17z m-3263 -7 c21 -20 22 -23 6 -40 -22
-24 -35 -23 -64 8 -24 25 -24 26 -5 40 27 19 36 18 63 -8z m357 0 c19 -27 5
-48 -19 -28 -16 14 -21 50 -6 50 6 0 17 -10 25 -22z m461 12 c-3 -5 -10 -10
-16 -10 -5 0 -9 5 -9 10 0 6 7 10 16 10 8 0 12 -4 9 -10z m269 1 c6 -10 -22
-37 -29 -29 -8 7 5 38 15 38 5 0 11 -4 14 -9z m136 0 c0 -6 -4 -13 -10 -16 -5
-3 -10 1 -10 9 0 9 5 16 10 16 6 0 10 -4 10 -9z m58 -16 c-6 -14 -15 -25 -20
-25 -11 0 -10 7 2 31 16 28 32 23 18 -6z m432 -9 c0 -33 -20 -62 -33 -49 -9 8
-9 46 -1 67 11 30 34 18 34 -18z m1366 -1 c20 -19 34 -38 30 -42 -7 -7 -78 47
-84 65 -7 22 16 12 54 -23z m-3456 -1 c0 -8 -4 -14 -10 -14 -5 0 -10 9 -10 21
0 11 5 17 10 14 6 -3 10 -13 10 -21z m883 -25 c-16 -16 -33 -2 -33 29 l0 26
22 -22 c16 -16 19 -25 11 -33z m1262 6 c0 -29 -4 -40 -15 -40 -11 0 -16 13
-18 43 -3 38 -1 43 15 40 14 -2 18 -13 18 -43z m65 -9 c0 -49 -7 -61 -27 -45
-16 14 -17 71 -1 87 18 18 28 4 28 -42z m-2311 10 c12 -18 21 -37 20 -42 0 -5
-34 -36 -76 -69 -402 -317 -654 -671 -719 -1012 -8 -41 -14 -125 -14 -186 0
-110 13 -168 65 -289 11 -27 -18 -23 -54 8 -37 31 -83 110 -110 189 -106 318
84 764 489 1149 105 99 344 286 366 286 7 0 22 -15 33 -34z m245 13 c31 -25
33 -35 5 -49 -17 -9 -26 -7 -55 15 -28 22 -33 30 -23 41 16 20 42 17 73 -7z
m856 11 c0 -5 -4 -10 -10 -10 -5 0 -10 5 -10 10 0 6 5 10 10 10 6 0 10 -4 10
-10z m348 -7 c-5 -25 -28 -28 -28 -4 0 12 6 21 16 21 9 0 14 -7 12 -17z m172
4 c0 -14 -20 -37 -32 -37 -12 0 -10 24 4 38 16 16 28 15 28 -1z m210 5 c0 -5
-10 -19 -22 -32 -20 -22 -23 -22 -26 -7 -2 10 2 24 8 32 13 16 40 20 40 7z
m550 -40 c0 -20 -5 -44 -10 -52 -16 -24 -43 17 -35 55 11 57 45 55 45 -3z
m-1770 14 c23 -26 22 -56 -3 -56 -7 0 -24 11 -37 25 -19 20 -21 27 -10 40 17
20 23 19 50 -9z m176 -2 c13 -20 14 -28 5 -37 -10 -9 -17 -7 -31 11 -18 22
-18 52 1 52 5 0 16 -11 25 -26z m354 22 c0 -3 -4 -8 -10 -11 -5 -3 -10 -1 -10
4 0 6 5 11 10 11 6 0 10 -2 10 -4z m200 -16 c0 -11 -4 -20 -10 -20 -5 0 -10 9
-10 20 0 11 5 20 10 20 6 0 10 -9 10 -20z m537 -15 c-3 -7 -15 -19 -26 -25
-29 -15 -28 13 1 42 22 22 36 13 25 -17z m558 -16 c0 -32 -4 -44 -15 -44 -16
0 -26 54 -16 82 12 30 31 6 31 -38z m1088 11 c23 -22 36 -40 29 -40 -7 0 -32
18 -55 40 -23 22 -36 40 -29 40 7 0 32 -18 55 -40z m201 7 c11 -15 17 -29 14
-32 -8 -9 -58 35 -58 52 0 21 20 12 44 -20z m-2800 7 c19 -18 20 -30 4 -40
-12 -8 -38 21 -38 43 0 18 15 16 34 -3z m276 6 c0 -5 -4 -10 -10 -10 -5 0 -10
5 -10 10 0 6 5 10 10 10 6 0 10 -4 10 -10z m40 0 c0 -5 -4 -10 -10 -10 -5 0
-10 5 -10 10 0 6 5 10 10 10 6 0 10 -4 10 -10z m1246 -21 c-3 -17 -6 -38 -6
-45 0 -8 -4 -14 -10 -14 -11 0 -14 49 -4 74 11 29 27 17 20 -15z m-2078 -2
c21 -23 22 -24 4 -40 -14 -13 -22 -14 -41 -4 -35 18 -50 45 -31 57 24 16 45
12 68 -13z m1090 1 c-4 -27 -28 -36 -28 -10 0 20 8 32 22 32 5 0 8 -10 6 -22z
m172 7 c0 -15 -26 -32 -36 -23 -2 3 -2 13 2 22 8 20 34 21 34 1z m260 -8 c0
-23 -17 -47 -32 -47 -11 0 -10 28 2 51 14 26 30 24 30 -4z m1549 -19 c52 -49
51 -49 -67 -99 -189 -78 -371 -105 -657 -95 -295 10 -299 11 -277 85 l12 37
174 -4 c267 -7 471 20 651 86 44 16 89 30 100 31 11 0 40 -18 64 -41z m-2389
22 c0 -5 -4 -10 -10 -10 -5 0 -10 5 -10 10 0 6 5 10 10 10 6 0 10 -4 10 -10z
m885 -46 c-16 -25 -35 -24 -35 2 0 8 10 24 22 36 21 21 23 21 26 5 2 -10 -4
-29 -13 -43z m1745 -24 c0 -17 -36 6 -59 39 -11 15 -17 31 -13 35 8 8 72 -58
72 -74z m-3600 60 c0 -5 -4 -10 -10 -10 -5 0 -10 5 -10 10 0 6 5 10 10 10 6 0
10 -4 10 -10z m59 -14 c23 -25 21 -46 -4 -46 -16 0 -35 30 -35 54 0 23 13 20
39 -8z m551 5 c25 -47 0 -69 -35 -31 -15 16 -15 22 -5 35 17 20 27 19 40 -4z
m160 -32 c0 -4 -4 -10 -9 -14 -14 -8 -41 34 -34 53 5 12 9 11 25 -8 10 -12 18
-26 18 -31z m500 31 c0 -11 -7 -20 -15 -20 -17 0 -18 2 -9 24 9 23 24 20 24
-4z m334 11 c3 -5 -3 -20 -13 -32 -26 -32 -48 -14 -25 19 16 23 29 28 38 13z
m-1175 -25 c38 -40 5 -62 -44 -30 -27 18 -33 39 -12 47 23 10 34 7 56 -17z
m606 14 c3 -5 2 -10 -4 -10 -5 0 -13 5 -16 10 -3 6 -2 10 4 10 5 0 13 -4 16
-10z m143 -8 c2 -7 -3 -12 -12 -12 -9 0 -16 7 -16 16 0 17 22 14 28 -4z m743
6 c4 -39 -17 -76 -34 -59 -13 13 2 71 19 71 8 0 15 -6 15 -12z m1767 -9 c7
-12 11 -24 8 -27 -6 -6 -35 27 -36 41 0 14 15 7 28 -14z m-2800 -8 c3 -8 -1
-12 -9 -9 -7 2 -15 10 -17 17 -3 8 1 12 9 9 7 -2 15 -10 17 -17z m528 -6 c-3
-9 -11 -13 -16 -10 -8 5 -7 11 1 21 14 18 24 11 15 -11z m244 14 c0 -20 -21
-49 -35 -49 -20 0 -19 19 2 42 18 20 33 24 33 7z m326 -4 c8 -21 -10 -70 -27
-70 -18 0 -24 38 -9 64 13 25 28 27 36 6z m-1769 -20 c27 -24 27 -26 9 -40
-19 -15 -30 -12 -70 19 -22 18 -15 46 13 46 11 0 33 -11 48 -25z m776 3 c7
-25 3 -33 -12 -23 -13 8 -15 45 -2 45 5 0 11 -10 14 -22z m1057 -14 c0 -14 -5
-34 -11 -45 -15 -30 -43 -5 -34 30 14 54 45 64 45 15z m1490 -1 c23 -26 29
-38 20 -41 -14 -5 -70 50 -70 68 0 19 18 9 50 -27z m-2984 2 c27 -42 -7 -63
-41 -25 -15 16 -15 22 -5 35 17 21 27 19 46 -10z m158 -8 c6 -15 7 -30 3 -33
-12 -12 -37 18 -37 43 0 32 22 25 34 -10z m606 26 c0 -5 -4 -15 -10 -23 -11
-18 -25 -7 -17 15 6 15 27 21 27 8z m400 -17 c0 -18 -37 -49 -49 -41 -8 4 -8
13 0 28 20 37 49 45 49 13z m-1356 -12 c20 -21 24 -30 15 -40 -17 -21 -43 -17
-69 11 -23 25 -23 25 -4 40 26 19 27 19 58 -11z m726 11 c0 -8 -4 -15 -10 -15
-5 0 -10 7 -10 15 0 8 5 15 10 15 6 0 10 -7 10 -15z m126 -21 c-4 -12 -10 -14
-17 -7 -5 5 -7 17 -3 27 4 12 10 14 17 7 5 -5 7 -17 3 -27z m275 13 c-10 -9
-11 -8 -5 6 3 10 9 15 12 12 3 -3 0 -11 -7 -18z m627 0 c7 -34 -7 -67 -28 -67
-16 0 -20 7 -20 38 0 21 3 42 7 46 12 12 38 1 41 -17z m1572 -40 c0 -7 -12 1
-25 16 -14 15 -25 33 -25 40 0 7 12 -1 25 -16 14 -15 25 -33 25 -40z m-3745
12 l19 -40 -84 -77 c-186 -170 -317 -317 -416 -466 -207 -308 -280 -618 -205
-856 26 -81 26 -80 -2 -80 -80 0 -151 163 -150 345 1 358 266 794 690 1130 59
47 112 85 119 85 6 0 19 -18 29 -41z m903 10 c2 -23 2 -23 -13 -5 -18 24 -20
39 -2 34 6 -3 13 -15 15 -29z m282 21 c0 -5 -4 -10 -10 -10 -5 0 -10 5 -10 10
0 6 5 10 10 10 6 0 10 -4 10 -10z m650 -12 c0 -22 -22 -48 -40 -48 -24 0 -26
18 -5 47 15 21 45 22 45 1z m398 -23 c4 -45 -10 -64 -33 -45 -15 12 -14 56 2
83 11 19 28 -2 31 -38z m1362 -37 c0 -20 -30 -5 -54 26 -40 52 -31 65 14 21
22 -21 40 -43 40 -47z m-3530 51 c0 -6 -4 -7 -10 -4 -5 3 -10 11 -10 16 0 6 5
7 10 4 6 -3 10 -11 10 -16z m141 -15 c18 -19 20 -26 9 -38 -15 -19 -42 -7 -66
29 -31 47 14 55 57 9z m804 -1 c3 -13 2 -23 -3 -23 -11 0 -22 24 -22 48 0 21
15 5 25 -25z m605 25 c-1 -18 -29 -53 -36 -45 -4 3 1 18 10 32 18 28 26 32 26
13z m690 -28 c0 -38 -9 -60 -25 -60 -27 0 -34 60 -9 84 21 21 34 12 34 -24z
m-1742 -15 c7 -33 -15 -39 -43 -11 -22 22 -25 30 -14 42 10 12 15 13 33 1 12
-8 23 -22 24 -32z m154 28 c20 -18 24 -43 6 -43 -16 0 -48 31 -48 47 0 18 20
16 42 -4z m723 -12 c-3 -12 -11 -21 -16 -21 -6 0 -8 3 -6 8 2 4 7 16 11 26 9
25 20 13 11 -13z m445 -20 c-12 -31 -33 -40 -45 -21 -7 11 12 51 29 62 20 13
29 -10 16 -41z m473 3 c-2 -21 -10 -45 -18 -53 -13 -14 -15 -11 -15 26 0 50 9
75 24 70 6 -2 10 -21 9 -43z m-1503 17 c17 -33 12 -46 -10 -26 -21 19 -27 45
-10 45 5 0 14 -9 20 -19z m456 3 c-3 -9 -6 -18 -6 -20 0 -3 -4 -3 -10 1 -11 7
-2 35 12 35 6 0 7 -7 4 -16z m94 6 c0 -5 -5 -10 -11 -10 -5 0 -7 5 -4 10 3 6
8 10 11 10 2 0 4 -4 4 -10z m979 -34 c-9 -8 -10 -7 -5 7 3 10 7 24 7 30 1 7 3
4 6 -7 3 -10 -1 -23 -8 -30z m1140 0 l43 -44 -78 -46 c-82 -48 -215 -96 -319
-115 -119 -22 -342 -32 -478 -22 -141 11 -317 38 -330 51 -15 13 20 79 45 85
13 3 75 1 138 -5 341 -30 637 7 844 104 39 19 76 35 81 35 6 1 30 -19 54 -43z
m201 -24 c-1 -13 -8 -8 -31 16 -16 18 -26 38 -23 44 9 14 54 -36 54 -60z
m-3370 32 c24 -21 28 -29 19 -40 -17 -20 -40 -17 -74 11 -29 24 -29 25 -10 39
27 20 29 20 65 -10z m750 6 c0 -11 -4 -20 -10 -20 -5 0 -10 9 -10 20 0 11 5
20 10 20 6 0 10 -9 10 -20z m120 -5 c0 -14 -4 -25 -10 -25 -5 0 -10 11 -10 25
0 14 5 25 10 25 6 0 10 -11 10 -25z m444 16 c8 -12 -30 -58 -40 -49 -9 10 12
58 25 58 5 0 12 -4 15 -9z m-704 -21 c6 -11 8 -26 4 -32 -5 -8 -10 -5 -15 8
-16 41 -8 59 11 24z m530 6 c0 -7 -7 -19 -15 -26 -12 -10 -15 -9 -15 7 0 11 3
23 7 26 11 12 23 8 23 -7z m460 -5 c0 -10 -9 -29 -19 -42 -18 -22 -20 -22 -26
-6 -12 28 3 67 25 67 13 0 20 -7 20 -19z m-1790 -53 c0 -20 -41 -6 -50 18 -17
43 -11 49 20 19 17 -16 30 -32 30 -37z m502 45 c21 -19 24 -53 5 -53 -21 0
-50 37 -44 55 8 19 16 19 39 -2z m148 -9 c13 -34 2 -53 -17 -29 -15 22 -17 55
-3 55 6 0 15 -12 20 -26z m909 17 c12 -8 12 -13 -3 -35 -16 -25 -46 -36 -46
-16 0 14 22 60 29 60 3 0 12 -4 20 -9z m289 -42 c-2 -29 -7 -34 -28 -34 -28 0
-30 23 -3 64 19 30 36 15 31 -30z m-1518 17 c23 -26 22 -56 -3 -56 -7 0 -24
11 -37 25 -19 20 -21 27 -10 40 17 20 23 19 50 -9z m570 -12 c0 -14 -4 -22
-10 -19 -5 3 -10 17 -10 31 0 14 4 22 10 19 6 -3 10 -17 10 -31z m2626 -16 c8
-15 10 -28 5 -28 -14 0 -61 62 -54 73 7 11 31 -11 49 -45z m-2435 5 c-10 -17
-10 -16 -11 3 0 23 13 41 18 25 2 -6 -1 -18 -7 -28z m127 20 c-2 -9 -8 -18
-15 -20 -7 -3 -9 3 -6 16 6 25 26 28 21 4z m702 -27 c0 -36 -15 -57 -36 -49
-19 7 -18 58 2 77 21 22 34 11 34 -28z m-1797 6 c21 -22 24 -31 15 -40 -18
-18 -32 -15 -58 12 -23 26 -22 56 3 56 7 0 25 -13 40 -28z m1240 13 c-3 -9 -8
-14 -10 -11 -3 3 -2 9 2 15 9 16 15 13 8 -4z m267 -3 c0 -27 -28 -62 -45 -56
-20 8 -19 33 2 56 21 23 43 23 43 0z m-1176 -14 c30 -43 12 -65 -26 -31 -22
19 -24 53 -4 53 8 0 22 -10 30 -22z m156 3 c13 -25 13 -51 0 -51 -12 0 -41 55
-33 64 11 11 22 6 33 -13z m367 -3 c-3 -8 -6 -5 -6 6 -1 11 2 17 5 13 3 -3 4
-12 1 -19z m35 -10 c-9 -9 -12 -7 -12 12 0 19 3 21 12 12 9 -9 9 -15 0 -24z
m110 10 c-7 -7 -12 -8 -12 -2 0 14 12 26 19 19 2 -3 -1 -11 -7 -17z m264 -6
c-18 -16 -18 -16 -6 6 6 13 14 21 18 18 3 -4 -2 -14 -12 -24z m602 -10 c4 -37
-12 -64 -34 -55 -14 5 -19 49 -8 78 11 28 39 13 42 -23z m1636 23 c3 -8 1 -15
-3 -15 -5 0 -11 7 -15 15 -3 8 -1 15 3 15 5 0 11 -7 15 -15z m-3721 -36 l21
-37 -105 -103 c-345 -342 -549 -731 -549 -1048 0 -63 6 -131 15 -164 8 -32 15
-60 15 -63 0 -3 -19 -4 -42 -2 -35 2 -46 9 -65 36 -36 55 -57 170 -50 286 12
212 98 422 276 679 78 110 421 461 447 455 9 -2 26 -19 37 -39z m837 -2 c0 -5
-7 -4 -15 3 -8 7 -15 20 -15 29 1 13 3 13 15 -3 8 -11 15 -24 15 -29z m1320 1
c0 -39 -17 -69 -35 -62 -18 7 -21 74 -4 91 18 18 39 3 39 -29z m1428 2 c23
-35 27 -50 13 -50 -8 0 -61 74 -61 86 0 15 27 -6 48 -36z m-3221 8 c26 -25 29
-43 8 -52 -21 -8 -70 37 -62 57 9 23 26 21 54 -5z m1193 9 c0 -18 -36 -51 -44
-39 -6 10 21 52 35 52 5 0 9 -6 9 -13z m232 -16 c-4 -37 -20 -53 -43 -41 -15
9 -16 15 -7 41 8 23 16 29 32 27 16 -2 20 -9 18 -27z m-541 -24 c-8 -8 -11 -5
-11 9 0 27 14 41 18 19 2 -9 -1 -22 -7 -28z m139 23 c-6 -11 -15 -20 -21 -20
-6 0 -6 7 1 20 6 11 15 20 21 20 6 0 6 -7 -1 -20z m825 -31 c0 -34 -4 -44 -17
-47 -15 -3 -18 4 -18 41 0 24 3 47 7 51 16 16 28 -4 28 -45z m1504 -9 c0 -10
-6 -8 -19 9 -11 13 -20 31 -20 40 0 12 5 10 20 -9 11 -14 20 -32 19 -40z
m-3557 23 c26 -25 37 -53 21 -53 -22 0 -73 42 -73 60 0 28 19 25 52 -7z m502
5 c20 -28 20 -38 2 -38 -17 0 -48 39 -40 52 9 14 22 9 38 -14z m131 -7 c9 -18
11 -32 5 -36 -8 -5 -40 43 -40 60 0 16 22 1 35 -24z m135 8 c0 -11 -4 -17 -10
-14 -5 3 -10 13 -10 21 0 8 5 14 10 14 6 0 10 -9 10 -21z m35 11 c3 -5 1 -10
-4 -10 -6 0 -11 5 -11 10 0 6 2 10 4 10 3 0 8 -4 11 -10z m85 -33 c0 -10 -4
-15 -10 -12 -5 3 -10 18 -10 33 0 21 2 24 10 12 5 -8 10 -23 10 -33z m96 6
c-11 -11 -17 4 -9 23 7 18 8 18 11 1 2 -10 1 -21 -2 -24z m698 31 c32 -12 15
-74 -20 -74 -27 0 -30 15 -12 55 13 28 11 27 32 19z m1710 -38 l31 -38 -45
-40 c-24 -22 -85 -60 -136 -84 -181 -88 -424 -126 -685 -106 -180 14 -429 57
-467 81 -15 9 -8 46 13 75 14 19 17 19 127 1 146 -23 523 -32 640 -16 168 25
342 82 433 144 22 15 44 26 49 24 6 -2 24 -20 40 -41z m-3048 13 c22 -21 23
-49 1 -49 -16 0 -57 41 -57 57 0 20 31 16 56 -8z m917 -7 c-6 -24 -23 -30 -23
-9 0 13 21 39 26 34 2 -2 1 -13 -3 -25z m204 12 c2 -6 -4 -21 -14 -32 -24 -29
-48 -15 -39 23 5 20 12 26 28 23 12 -2 23 -8 25 -14z m643 -6 c-1 -13 -7 -34
-15 -48 l-14 -25 -1 32 c0 37 8 63 21 63 5 0 9 -10 9 -22z m-1954 -21 c28 -24
29 -57 2 -57 -25 0 -72 46 -65 63 9 24 31 21 63 -6z m594 -26 c-1 -13 -4 -12
-15 3 -8 11 -15 27 -15 35 1 13 4 12 15 -3 8 -11 15 -27 15 -35z m1015 9 c0
-31 -3 -35 -27 -38 -23 -3 -28 1 -28 18 0 32 19 62 38 58 12 -2 17 -13 17 -38z
m-1301 1 c14 -27 12 -41 -5 -41 -14 0 -41 48 -34 60 11 17 24 11 39 -19z m136
10 c5 -11 10 -24 10 -30 0 -21 -20 -10 -35 19 -14 26 -14 30 -1 30 9 0 20 -9
26 -19z m570 11 c0 -5 -7 -17 -16 -28 -14 -17 -15 -17 -10 -1 3 10 6 23 6 28
0 5 5 9 10 9 6 0 10 -4 10 -8z m355 -3 c13 -20 -4 -59 -26 -59 -25 0 -34 22
-19 49 12 23 35 28 45 10z m1999 -11 c27 -37 18 -57 -9 -23 -14 17 -25 33 -25
38 0 15 19 6 34 -15z m-3544 -47 c-1 -11 -8 -8 -25 12 -33 37 -32 57 0 27 14
-13 25 -31 25 -39z m311 33 c26 -25 29 -54 7 -54 -5 0 -23 9 -39 21 -24 17
-27 24 -19 40 14 25 19 24 51 -7z m1547 -12 c4 -37 -12 -64 -33 -55 -21 7 -27
36 -15 67 14 39 44 31 48 -12z m-1021 -4 c-3 -7 -5 -2 -5 12 0 14 2 19 5 13 2
-7 2 -19 0 -25z m43 4 c0 -15 -2 -15 -10 -2 -13 20 -13 33 0 25 6 -3 10 -14
10 -23z m181 -9 c-10 -17 -10 -16 -11 3 0 23 13 41 18 25 2 -6 -1 -18 -7 -28z
m309 31 c0 -13 -21 -44 -30 -44 -14 0 -12 24 2 38 13 13 28 16 28 6z m-274
-30 c-4 -9 -9 -15 -11 -12 -3 3 -3 13 1 22 4 9 9 15 11 12 3 -3 3 -13 -1 -22z
m520 11 c11 -27 -5 -65 -27 -65 -25 0 -35 25 -21 56 13 27 40 32 48 9z m309
-35 c0 -41 -2 -45 -25 -45 -21 0 -25 4 -23 25 6 54 14 71 31 68 13 -3 17 -14
17 -48z m-1996 1 l20 -38 -91 -104 c-237 -270 -371 -496 -446 -749 -21 -73
-25 -109 -27 -250 l-3 -165 -49 0 c-47 0 -48 1 -63 40 -10 29 -14 81 -14 185
0 128 4 155 27 232 58 189 140 346 279 533 80 108 314 355 335 355 7 0 21 -17
32 -39z m188 17 c44 -41 21 -72 -27 -38 -33 23 -41 60 -13 60 9 0 27 -10 40
-22z m315 5 c21 -19 24 -53 5 -53 -21 0 -50 37 -44 55 8 19 16 19 39 -2z m154
-8 c9 -14 14 -28 10 -32 -8 -9 -46 27 -46 44 0 21 18 15 36 -12z m2934 -7 c22
-36 25 -48 11 -48 -9 0 -51 61 -51 74 0 17 23 2 40 -26z m-2810 -26 c0 -12 -3
-12 -15 -2 -8 7 -15 22 -15 34 1 21 1 21 15 2 8 -11 15 -26 15 -34z m534 24
c-6 -16 -24 -23 -24 -8 0 10 22 33 27 28 2 -2 1 -11 -3 -20z m195 10 c13 -15
-1 -66 -18 -66 -18 0 -33 30 -27 55 7 28 27 33 45 11z m561 -34 c0 -46 -11
-65 -33 -56 -22 8 -23 67 -1 88 22 23 34 11 34 -32z m-1741 13 c29 -25 33 -55
7 -55 -23 0 -70 46 -63 63 9 23 20 21 56 -8z m1420 11 c16 -20 10 -70 -9 -73
-30 -6 -43 13 -36 51 7 38 25 46 45 22z m-859 -17 c0 -6 -4 -7 -10 -4 -5 3
-10 11 -10 16 0 6 5 7 10 4 6 -3 10 -11 10 -16z m1240 -3 c0 -33 -17 -76 -30
-76 -11 0 -14 59 -4 84 10 25 34 19 34 -8z m1443 -35 l17 -30 -60 -53 c-118
-104 -255 -166 -440 -199 -112 -20 -438 -17 -573 5 -98 16 -394 90 -406 101
-5 6 29 84 40 91 5 2 43 -4 86 -15 193 -48 477 -73 688 -60 206 12 446 92 554
183 49 41 58 39 94 -23z m117 49 c0 -5 -2 -10 -4 -10 -3 0 -8 5 -11 10 -3 6
-1 10 4 10 6 0 11 -4 11 -10z m-3076 -19 c10 -11 16 -25 14 -31 -4 -14 -48 17
-48 36 0 20 14 18 34 -5z m-470 -20 c41 -43 14 -49 -31 -7 -33 30 -35 35 -17
36 11 0 33 -13 48 -29z m323 5 c21 -19 25 -27 17 -36 -20 -20 -84 26 -69 50
10 15 21 12 52 -14z m273 3 c15 -28 4 -38 -15 -13 -17 22 -19 34 -5 34 5 0 14
-9 20 -21z m130 -12 c0 -5 -4 -5 -10 -2 -5 3 -10 14 -10 23 0 15 2 15 10 2 5
-8 10 -19 10 -23z m520 25 c0 -5 -6 -17 -14 -28 -19 -25 -31 -12 -14 15 13 21
28 28 28 13z m190 -7 c10 -12 10 -21 2 -40 -22 -47 -71 -20 -52 29 11 29 31
34 50 11z m250 0 c13 -15 5 -70 -11 -81 -15 -9 -39 16 -39 41 0 51 24 71 50
40z m333 -13 c-3 -12 -10 -22 -15 -22 -5 0 -7 3 -5 8 2 4 7 16 11 26 9 25 17
16 9 -12z m1517 -30 c0 -12 -3 -12 -15 -2 -8 7 -15 22 -15 34 1 21 1 21 15 2
8 -11 15 -26 15 -34z m-3375 -23 c0 -23 -28 -21 -60 5 -26 21 -28 26 -16 40
13 15 16 14 45 -8 17 -13 31 -30 31 -37z m275 26 c13 -14 21 -28 17 -31 -10
-10 -57 24 -57 41 0 22 13 18 40 -10z m150 -33 c0 -12 -7 -9 -25 8 -14 13 -25
30 -25 38 0 12 7 9 25 -8 14 -13 25 -30 25 -38z m109 28 c11 -24 11 -24 -3 -6
-9 11 -16 24 -16 30 0 12 5 7 19 -24z m821 -13 c0 -13 -6 -31 -13 -41 -12 -17
-14 -17 -36 1 -23 19 -23 20 -7 51 14 28 20 31 36 22 11 -6 20 -21 20 -33z
m238 31 c13 -13 16 -66 4 -85 -6 -10 -13 -9 -30 3 -24 17 -27 30 -12 68 11 29
20 32 38 14z m-498 -19 c-7 -11 -14 -18 -17 -15 -3 3 0 12 7 21 18 21 23 19
10 -6z m61 11 c23 -13 25 -39 5 -66 -15 -19 -15 -19 -36 2 -18 18 -20 24 -9
47 14 31 14 31 40 17z m-1389 -39 l28 -39 -76 -93 c-277 -343 -423 -676 -424
-961 l0 -97 -45 -7 c-25 -3 -51 -4 -59 -1 -38 15 -33 260 7 397 77 258 210
480 449 749 44 50 83 91 86 91 4 0 19 -18 34 -39z m345 17 c26 -24 30 -48 9
-48 -20 0 -66 39 -66 56 0 21 31 17 57 -8z m846 7 c-3 -9 -8 -14 -10 -11 -3 3
-2 9 2 15 9 16 15 13 8 -4z m2397 -46 c0 -10 -2 -19 -5 -19 -7 0 -35 57 -35
72 1 20 40 -32 40 -53z m-3541 17 c-3 -3 -11 5 -18 17 -13 21 -12 21 5 5 10
-10 16 -20 13 -22z m701 13 c0 -6 -4 -7 -10 -4 -5 3 -10 11 -10 16 0 6 5 7 10
4 6 -3 10 -11 10 -16z m471 -2 c-10 -9 -11 -8 -5 6 3 10 9 15 12 12 3 -3 0
-11 -7 -18z m693 15 c9 -15 -6 -92 -18 -92 -28 0 -44 25 -39 63 4 31 9 37 29
37 12 0 25 -4 28 -8z m-1726 -66 c5 -23 -18 -19 -52 8 -20 17 -27 29 -22 41 6
16 10 15 39 -8 17 -13 33 -32 35 -41z m279 42 c21 -19 31 -48 18 -48 -17 0
-55 35 -55 51 0 25 8 24 37 -3z m149 -3 c9 -14 14 -28 10 -32 -8 -9 -46 27
-46 44 0 21 18 15 36 -12z m1038 12 c14 -10 16 -19 9 -47 -10 -39 -22 -46 -47
-27 -14 10 -16 21 -11 50 8 39 20 45 49 24z m-934 -27 c12 -23 12 -24 -3 -11
-10 7 -17 20 -17 29 0 18 3 16 20 -18z m550 20 c0 -5 -4 -10 -10 -10 -5 0 -10
5 -10 10 0 6 5 10 10 10 6 0 10 -4 10 -10z m705 0 c4 -6 4 -29 0 -50 -5 -30
-11 -40 -26 -40 -15 0 -19 7 -19 31 0 50 28 87 45 59z m-496 -14 c11 -13 6
-40 -12 -63 -14 -19 -47 3 -47 30 0 41 36 61 59 33z m-1173 -19 c27 -23 27
-47 0 -47 -19 0 -68 48 -61 60 10 16 32 11 61 -13z m294 -38 c0 -17 -18 -9
-39 17 -29 36 -14 55 16 20 12 -15 23 -31 23 -37z m691 18 c-11 -29 -26 -35
-34 -14 -2 6 5 22 17 35 24 27 31 17 17 -21z m739 27 c0 -20 -18 -54 -29 -54
-8 0 -6 22 5 58 5 17 24 15 24 -4z m1526 -20 c14 -33 13 -38 -6 -69 -28 -46
-111 -119 -179 -158 -286 -166 -688 -179 -1173 -38 -163 48 -218 69 -218 85 0
17 38 76 49 76 6 0 79 -18 163 -39 199 -52 244 -59 425 -71 382 -24 663 41
843 195 35 30 68 55 73 55 4 0 15 -16 23 -36z m-1818 13 c12 -14 2 -79 -14
-84 -5 -2 -18 3 -28 10 -15 11 -17 21 -12 50 7 39 33 50 54 24z m-1604 -39 c9
-12 13 -24 11 -27 -6 -6 -65 50 -65 61 0 14 37 -10 54 -34z m294 26 c19 -13
32 -54 16 -54 -15 0 -64 43 -64 56 0 18 20 18 48 -2z m272 -3 c13 -25 13 -34
0 -26 -16 10 -32 45 -21 45 6 0 15 -9 21 -19z m2950 -14 c0 -5 -4 -5 -10 -2
-5 3 -10 14 -10 23 0 15 2 15 10 2 5 -8 10 -19 10 -23z m-2289 6 c26 -31 1
-90 -31 -73 -25 13 -31 36 -18 65 13 29 30 32 49 8z m184 4 c14 -11 16 -21 11
-50 -7 -39 -15 -43 -47 -27 -22 12 -24 28 -7 65 13 29 17 30 43 12z m256 -7
c13 -7 19 -21 19 -43 0 -47 -12 -62 -39 -48 -21 12 -28 51 -15 85 7 19 9 19
35 6z m-1547 -21 c29 -23 35 -49 11 -49 -18 0 -65 43 -65 60 0 16 25 12 54
-11z m296 -4 c13 -14 20 -28 17 -32 -8 -7 -57 35 -57 49 0 15 16 8 40 -17z
m145 -34 c-7 -7 -45 39 -44 54 0 6 11 -3 25 -19 14 -15 22 -31 19 -35z m-621
18 c14 -17 26 -36 26 -43 0 -7 -25 -46 -56 -87 -108 -144 -216 -334 -278 -492
-43 -109 -67 -214 -74 -327 l-7 -104 -59 -14 c-75 -19 -78 -14 -73 108 10 219
93 441 260 698 67 102 214 292 227 292 5 0 20 -14 34 -31z m3550 15 c11 -28 6
-39 -9 -20 -8 11 -15 23 -15 28 0 14 18 9 24 -8z m-3236 -10 c21 -15 31 -54
13 -54 -16 0 -61 41 -61 56 0 18 20 18 48 -2z m1232 -2 c19 -16 22 -24 16 -55
-7 -39 -21 -45 -50 -24 -15 11 -17 21 -11 55 8 47 13 50 45 24z m254 12 c20
-8 21 -63 2 -89 -12 -16 -16 -17 -30 -6 -12 10 -15 23 -10 50 10 53 11 55 38
45z m-1205 -58 c-9 -10 -49 25 -49 42 0 13 6 11 27 -10 15 -15 25 -30 22 -32z
m589 29 c1 -11 -4 -29 -12 -40 -14 -19 -15 -19 -35 -1 -19 17 -19 20 -4 43 18
28 47 27 51 -2z m174 8 c33 -30 18 -91 -21 -78 -26 8 -37 46 -21 74 13 25 18
26 42 4z m-912 -18 c13 -14 20 -28 16 -32 -10 -10 -60 22 -64 41 -5 24 22 19
48 -9z m-306 -6 c23 -18 36 -49 21 -49 -14 0 -65 45 -65 57 0 18 13 16 44 -8z
m1734 -4 c2 -12 -8 -31 -24 -45 l-27 -25 6 25 c4 14 7 35 7 48 0 30 34 26 38
-3z m1662 -46 c0 -36 -47 -105 -118 -171 -284 -262 -819 -285 -1411 -62 -80
29 -149 58 -154 63 -5 5 -2 21 6 38 29 55 34 56 148 17 252 -85 476 -125 714
-126 337 -1 574 77 726 240 61 65 65 67 76 48 7 -12 12 -32 13 -47z m-1912 45
c22 -15 27 -40 16 -81 -8 -28 -15 -28 -43 -5 -19 14 -21 23 -15 60 7 47 10 49
42 26z m-1344 -15 c28 -22 35 -49 12 -49 -20 0 -66 39 -66 56 0 20 23 17 54
-7z m281 -9 c28 -31 8 -37 -23 -7 -19 20 -22 27 -11 27 9 0 24 -9 34 -20z
m694 2 c11 -21 1 -74 -15 -79 -6 -2 -20 7 -33 20 -19 21 -20 28 -10 51 14 30
44 34 58 8z m183 1 c19 -17 24 -59 9 -82 -8 -12 -14 -13 -35 -3 -28 12 -32 34
-16 76 11 30 17 32 42 9z m-1025 -15 c26 -24 29 -38 9 -38 -19 0 -67 40 -61
51 10 15 27 10 52 -13z m720 -10 c20 -21 20 -26 8 -55 -17 -40 -27 -41 -54 -7
-19 24 -19 28 -5 55 18 35 24 36 51 7z m572 6 c19 -14 22 -22 16 -53 -9 -50
-21 -59 -45 -36 -15 16 -18 29 -13 63 6 47 9 49 42 26z m-1620 -28 l33 -34
-61 -96 c-170 -270 -264 -503 -286 -708 l-7 -68 -51 -15 c-87 -26 -90 -23 -76
86 20 165 61 293 150 472 48 95 244 397 258 397 4 0 22 -15 40 -34z m32 17
c13 -16 12 -17 -3 -4 -17 13 -22 21 -14 21 2 0 10 -8 17 -17z m120 -14 c30
-21 39 -49 17 -49 -22 0 -72 46 -64 58 10 16 13 15 47 -9z m297 5 c12 -8 22
-19 22 -25 0 -17 -26 -9 -50 16 -27 29 -9 35 28 9z m801 -25 c12 -22 12 -31 2
-57 -11 -26 -16 -30 -32 -22 -30 17 -40 44 -28 80 13 37 37 37 58 -1z m174 20
c31 -17 37 -29 30 -64 -10 -52 -16 -57 -46 -32 -25 20 -27 26 -21 65 7 47 7
46 37 31z m2077 1 c0 -5 -2 -10 -4 -10 -3 0 -8 5 -11 10 -3 6 -1 10 4 10 6 0
11 -4 11 -10z m-3206 -21 c26 -21 35 -49 15 -49 -19 0 -69 41 -69 56 0 20 23
17 54 -7z m1405 12 c15 -10 5 -36 -28 -65 -21 -19 -21 -19 -21 2 0 27 17 72
27 72 5 0 14 -4 22 -9z m-1134 -49 c-7 -7 -45 29 -45 41 0 6 11 0 25 -13 14
-13 23 -26 20 -28z m-140 14 c17 -13 27 -27 23 -31 -9 -9 -70 26 -76 43 -6 20
21 14 53 -12z m-309 -7 c41 -25 45 -45 6 -25 -29 15 -61 46 -47 46 4 0 23 -9
41 -21z m1002 5 c24 -16 29 -53 12 -85 -10 -18 -12 -18 -35 -3 -31 20 -36 37
-24 74 13 34 16 36 47 14z m2363 -11 c8 -22 4 -38 -24 -97 -102 -214 -351
-347 -694 -371 -178 -13 -448 28 -678 102 -128 41 -349 135 -376 159 -18 16
-18 18 -1 46 28 48 34 50 100 23 537 -218 1038 -250 1377 -86 87 43 214 150
255 217 12 18 24 34 26 34 3 0 9 -12 15 -27z m-2147 -24 c10 -15 12 -29 5 -51
-11 -42 -15 -43 -44 -24 -25 17 -31 46 -19 93 5 18 10 21 25 13 10 -6 25 -20
33 -31z m184 25 c20 -14 23 -21 17 -58 -10 -57 -14 -61 -41 -35 -23 22 -31 60
-18 93 8 20 14 20 42 0z m232 1 c-7 -8 -17 -15 -22 -15 -6 0 -5 7 2 15 7 8 17
15 22 15 6 0 5 -7 -2 -15z m-1492 -15 c37 -23 42 -40 9 -40 -28 0 -67 26 -67
46 0 19 19 18 58 -6z m277 0 c23 -26 4 -26 -26 0 -18 15 -20 19 -8 20 9 0 24
-9 34 -20z m399 -4 c-6 -16 -24 -23 -24 -8 0 10 22 33 27 28 2 -2 1 -11 -3
-20z m84 -70 c-6 -20 -15 -36 -19 -36 -4 0 -19 14 -33 30 -21 26 -24 35 -15
57 17 46 21 47 50 15 25 -28 27 -34 17 -66z m-637 67 c27 -16 44 -41 35 -51
-9 -8 -71 34 -74 51 -4 21 3 21 39 0z m-279 -20 l27 -28 -25 -40 c-14 -22 -57
-103 -96 -180 -71 -141 -120 -275 -154 -419 l-18 -79 -53 -24 c-93 -40 -95
-36 -64 107 29 129 56 200 141 375 91 185 173 315 199 315 9 0 29 -12 43 -27z
m433 -23 c3 -5 0 -10 -7 -10 -18 0 -58 28 -58 41 0 11 55 -15 65 -31z m1055
-20 c-29 -22 -51 -26 -45 -7 2 6 9 25 15 41 l11 30 22 -23 22 -22 -25 -19z
m-1369 18 c38 -21 50 -38 28 -38 -17 0 -79 40 -79 51 0 13 8 11 51 -13z m989
0 c23 -25 24 -33 9 -77 l-11 -32 -29 27 c-31 29 -36 53 -19 85 14 25 25 24 50
-3z m-852 -8 c32 -20 44 -50 18 -50 -20 0 -66 39 -66 56 0 19 9 18 48 -6z
m542 2 c0 -25 -38 -134 -51 -147 -7 -7 -20 1 -40 25 l-29 34 52 53 c56 57 68
63 68 35z m515 -2 c13 -14 16 -28 11 -54 -9 -47 -22 -53 -52 -25 -20 19 -23
29 -18 54 3 16 8 33 11 38 8 13 30 7 48 -13z m-928 -12 c35 -24 42 -38 19 -38
-16 0 -66 38 -66 51 0 14 11 11 47 -13z m618 -78 c-10 -51 -14 -54 -42 -28
-38 35 -43 50 -27 87 l14 34 31 -29 c26 -25 29 -34 24 -64z m555 81 c0 -5 -7
-14 -15 -21 -16 -14 -18 -10 -9 14 6 17 24 22 24 7z m-1442 -58 c2 -12 -13
-52 -32 -90 -50 -101 -111 -249 -146 -360 -17 -54 -36 -104 -43 -111 -8 -11
-78 -52 -119 -70 -14 -7 -8 51 13 126 41 146 149 389 226 510 l34 53 32 -18
c18 -11 33 -29 35 -40z m387 27 c17 -11 26 -20 22 -20 -11 0 -67 29 -67 35 0
10 16 4 45 -15z m2905 2 c0 -33 -39 -134 -71 -183 -16 -26 -63 -79 -104 -118
-159 -151 -422 -233 -700 -218 -282 16 -577 98 -866 242 -155 78 -160 83 -125
130 15 19 28 35 30 35 1 0 52 -22 113 -50 205 -91 437 -163 633 -195 109 -17
378 -20 485 -4 240 34 452 158 550 320 37 60 55 74 55 41z m-2546 -21 l28 -29
-22 -66 c-12 -36 -25 -66 -28 -66 -4 0 -22 9 -40 20 -36 22 -36 19 0 118 11
28 23 52 27 52 4 0 20 -13 35 -29z m329 6 c28 -22 28 -24 18 -65 -13 -47 -17
-49 -49 -26 -22 15 -28 47 -16 92 8 27 12 27 47 -1z m191 17 c24 -9 19 -33 -9
-46 -31 -14 -38 -8 -29 26 6 27 12 30 38 20z m-1143 -21 c32 -19 38 -33 14
-33 -22 0 -75 29 -75 40 0 15 29 12 61 -7z m134 -7 c40 -32 25 -44 -25 -21
-40 18 -46 25 -33 38 12 12 27 7 58 -17z m1125 10 c0 -8 -4 -17 -9 -21 -12 -7
-24 12 -16 25 9 15 25 12 25 -4z m-1011 -17 c18 -11 31 -22 28 -25 -7 -8 -77
26 -77 37 0 14 12 11 49 -12z m1071 4 c-1 -19 -19 -35 -30 -28 -10 6 -9 11 5
22 22 15 25 16 25 6z m-477 -41 c24 -27 14 -92 -14 -92 -26 0 -61 37 -55 58 3
9 8 29 12 44 7 30 23 27 57 -10z m-883 12 c22 -9 40 -23 40 -30 0 -8 -11 -37
-25 -64 -33 -64 -101 -237 -109 -277 -4 -18 -16 -43 -27 -57 -22 -29 -127 -91
-136 -82 -15 14 89 291 167 445 22 45 42 81 45 81 2 0 23 -7 45 -16z m1260 6
c0 -5 -7 -10 -15 -10 -8 0 -15 5 -15 10 0 6 7 10 15 10 8 0 15 -4 15 -10z
m-1102 -26 c30 -20 19 -36 -16 -23 -32 12 -52 28 -52 41 0 11 36 1 68 -18z
m121 4 c27 -17 32 -24 19 -26 -22 -4 -70 19 -76 36 -6 18 17 15 57 -10z m921
-7 c-11 -21 -40 -29 -40 -12 0 9 43 41 48 36 2 -2 -1 -13 -8 -24z m-120 4 c10
-12 7 -15 -15 -21 -30 -7 -40 -1 -32 21 8 19 31 19 47 0z m-308 -59 c9 -16 6
-23 -12 -38 -12 -10 -36 -18 -52 -18 -29 0 -30 1 -23 36 3 20 11 48 16 62 l10
25 25 -24 c14 -13 31 -33 36 -43z m508 39 c0 -21 -48 -51 -61 -38 -7 7 -2 17
17 32 31 25 44 27 44 6z m1925 -66 c-32 -127 -106 -242 -210 -329 -70 -58
-213 -126 -330 -157 -91 -24 -117 -26 -285 -27 -162 0 -200 3 -310 27 -153 32
-327 89 -477 155 -127 56 -353 182 -353 196 0 6 14 25 31 42 l31 32 97 -45
c263 -124 444 -189 636 -228 351 -72 615 -52 855 66 87 43 117 65 180 128 67
68 108 131 135 206 15 42 16 -7 0 -66z m-3085 46 c17 -9 30 -21 30 -27 0 -6
-19 -61 -42 -121 -42 -107 -44 -111 -100 -149 -81 -55 -91 -57 -82 -22 10 42
101 264 124 302 22 36 29 38 70 17z m140 0 c35 -18 41 -40 8 -29 -51 15 -68
24 -68 34 0 15 26 12 60 -5z m90 5 c0 -5 -4 -10 -10 -10 -5 0 -10 5 -10 10 0
6 5 10 10 10 6 0 10 -4 10 -10z m596 -11 c7 -12 -15 -31 -28 -23 -9 6 1 34 12
34 5 0 12 -5 16 -11z m148 -8 c-5 -5 -19 -12 -31 -16 -33 -9 -28 11 5 23 29
10 41 7 26 -7z m216 -16 c-7 -8 -17 -15 -23 -15 -5 0 -2 9 8 20 21 23 35 19
15 -5z m-1062 -16 c41 -16 27 -44 -61 -118 -27 -23 -55 -41 -63 -41 -14 0 -9
15 45 153 11 30 15 30 79 6z m82 11 c0 -5 -4 -10 -10 -10 -5 0 -10 5 -10 10 0
6 5 10 10 10 6 0 10 -4 10 -10z m848 -2 c-6 -17 -55 -44 -64 -35 -11 11 26 47
48 47 11 0 18 -5 16 -12z m-188 -8 c0 -5 -7 -10 -16 -10 -8 0 -12 5 -9 10 3 6
10 10 16 10 5 0 9 -4 9 -10z m100 -15 c0 -8 -7 -15 -15 -15 -16 0 -20 12 -8
23 11 12 23 8 23 -8z m154 -4 c7 -11 -30 -44 -44 -39 -6 2 -5 11 5 26 17 23
30 28 39 13z m-203 -17 c12 -14 11 -16 -5 -13 -11 2 -21 10 -24 17 -5 17 13
15 29 -4z m-61 -9 c0 -10 -11 -15 -35 -15 -56 0 -41 25 18 29 9 0 17 -6 17
-14z m190 -15 c0 -11 -6 -20 -14 -20 -18 0 -29 16 -21 30 11 18 35 11 35 -10z
m-90 -9 c0 -28 -14 -41 -47 -41 -27 0 -34 4 -31 17 3 15 24 24 71 32 4 0 7 -3
7 -8z m-225 -11 c3 -5 -1 -10 -9 -10 -8 0 -18 5 -21 10 -3 6 1 10 9 10 8 0 18
-4 21 -10z m60 -10 c3 -5 -1 -10 -9 -10 -9 0 -16 5 -16 10 0 6 4 10 9 10 6 0
13 -4 16 -10z m205 0 c0 -5 -4 -10 -10 -10 -5 0 -10 5 -10 10 0 6 5 10 10 10
6 0 10 -4 10 -10z m97 -17 c-9 -9 -20 -13 -24 -9 -4 4 1 14 11 22 25 18 35 8
13 -13z m-366 -3 c5 0 9 -4 9 -10 0 -14 -13 -12 -36 6 -17 14 -17 15 -1 10 10
-3 23 -6 28 -6z m2343 -51 c-30 -102 -84 -189 -174 -280 -72 -73 -100 -93
-181 -133 -361 -176 -849 -127 -1359 135 -123 64 -312 179 -317 195 -1 5 12
26 30 47 l32 39 70 -43 c204 -124 522 -253 740 -299 128 -27 432 -39 557 -20
111 16 248 61 327 107 86 50 197 162 245 246 21 37 40 66 42 64 2 -2 -3 -28
-12 -58z m-2250 35 c20 -8 21 -34 1 -34 -20 0 -65 22 -65 32 0 9 41 11 64 2z
m204 -11 c-3 -19 -53 -41 -64 -30 -11 11 27 47 48 47 13 0 18 -6 16 -17z
m-317 -13 c14 -11 18 -19 11 -20 -19 0 -52 19 -52 30 0 16 16 12 41 -10z m229
0 c0 -17 -3 -19 -19 -10 -32 16 -34 30 -7 30 19 0 26 -5 26 -20z m-583 -12
c-3 -8 -6 -5 -6 6 -1 11 2 17 5 13 3 -3 4 -12 1 -19z m518 2 c3 -5 1 -10 -4
-10 -6 0 -11 5 -11 10 0 6 2 10 4 10 3 0 8 -4 11 -10z m-300 -40 c15 -22 25
-43 22 -46 -5 -5 -57 68 -57 81 0 12 9 3 35 -35z m26 23 c13 -16 12 -17 -3 -4
-10 7 -18 15 -18 17 0 8 8 3 21 -13z m-116 -3 c3 -5 1 -10 -4 -10 -6 0 -11 5
-11 10 0 6 2 10 4 10 3 0 8 -4 11 -10z m212 -14 c15 -13 25 -27 21 -31 -7 -8
-68 34 -68 47 0 15 18 8 47 -16z m107 14 c16 -6 26 -17 26 -30 0 -25 -7 -25
-48 0 -48 29 -31 51 22 30z m-335 -80 c0 -22 -1 -23 -8 -5 -4 11 -11 36 -14
55 l-6 35 14 -30 c8 -16 14 -41 14 -55z m96 -2 c28 -53 29 -58 15 -58 -10 0
-60 103 -60 124 0 14 14 -6 45 -66z m445 62 c0 -5 -7 -10 -16 -10 -8 0 -12 5
-9 10 3 6 10 10 16 10 5 0 9 -4 9 -10z m-80 -9 c0 -38 -42 -55 -68 -29 -24 24
-13 38 28 38 22 0 40 -4 40 -9z m-614 -190 c-23 -157 -64 -299 -101 -347 -14
-18 -14 -17 -15 12 0 17 11 57 24 90 29 71 82 284 93 374 8 61 8 62 11 21 2
-24 -4 -91 -12 -150z m361 157 c32 -31 43 -58 24 -58 -11 0 -71 70 -71 82 0
15 14 8 47 -24z m-271 -283 c-3 -73 -11 -139 -21 -167 -35 -101 -55 -62 -31
61 9 47 19 154 22 236 3 83 8 157 12 165 11 28 23 -174 18 -295z m565 282
c-13 -13 -26 -3 -16 12 3 6 11 8 17 5 6 -4 6 -10 -1 -17z m-173 -3 c23 -16 29
-39 13 -48 -10 -7 -71 41 -71 55 0 14 33 11 58 -7z m-513 -95 c-18 -103 -80
-304 -96 -315 -14 -9 -5 35 31 151 25 81 45 155 64 239 4 15 9 26 12 23 3 -2
-2 -47 -11 -98z m252 34 c25 -58 45 -188 26 -168 -9 9 -36 104 -57 198 -10 44
3 31 31 -30z m159 -45 c3 -10 1 -25 -4 -35 -8 -14 -15 -9 -41 33 -17 27 -31
58 -31 68 0 17 5 15 35 -14 19 -19 37 -42 41 -52z m209 72 c3 -5 1 -19 -5 -30
-17 -31 -54 -23 -58 13 -3 24 0 27 27 27 16 0 33 -4 36 -10z m65 1 c0 -12 -29
-35 -36 -28 -11 10 5 37 21 37 8 0 15 -4 15 -9z m-172 -57 c9 -16 5 -54 -5
-54 -3 0 -18 9 -34 21 -21 15 -29 29 -29 50 0 29 0 29 30 14 16 -8 33 -22 38
-31z m-573 -80 c-36 -118 -43 -99 -9 23 16 54 30 90 32 81 2 -10 -8 -56 -23
-104z m132 -16 c-6 -100 -24 -214 -33 -205 -6 5 14 251 23 285 12 48 16 17 10
-80z m298 27 c25 -44 32 -98 16 -124 -11 -17 -24 5 -52 87 -24 69 -26 110 -4
92 8 -6 26 -31 40 -55z m-539 -56 c-49 -103 -75 -144 -76 -119 0 8 19 49 43
90 23 41 49 90 57 109 8 19 15 30 17 24 2 -6 -16 -53 -41 -104z m764 98 c0
-19 -37 -50 -49 -42 -12 7 -15 38 -4 48 12 12 53 7 53 -6z m-836 -9 c-19 -31
-123 -165 -140 -178 -27 -22 -13 -1 69 103 62 78 91 109 71 75z m52 -46 c-14
-28 -31 -54 -37 -58 -7 -4 3 20 22 54 40 73 51 76 15 4z m-146 -22 c-40 -47
-60 -65 -44 -37 17 27 78 96 82 92 3 -2 -14 -27 -38 -55z m812 35 c24 -22 26
-28 17 -55 -13 -37 -22 -37 -48 -4 -21 26 -28 64 -14 77 10 11 17 8 45 -18z
m-601 -64 c-26 -63 -84 -179 -105 -206 -33 -42 -14 10 50 136 66 132 92 166
55 70z m-361 24 c-13 -14 -26 -22 -29 -19 -3 3 5 14 18 25 33 27 39 24 11 -6z
m44 -6 c-16 -17 -42 -40 -59 -51 -16 -11 -5 3 25 31 62 57 79 67 34 20z m-154
7 c0 -8 -71 -48 -76 -43 -3 2 10 14 28 26 32 20 48 26 48 17z m40 -11 c0 -8
-119 -85 -132 -85 -7 0 16 20 52 44 62 43 80 52 80 41z m95 -65 c-33 -33 -64
-60 -69 -60 -6 0 18 29 54 65 35 35 66 62 69 59 3 -2 -22 -31 -54 -64z m186
38 c-41 -66 -104 -148 -113 -148 -13 0 19 51 75 121 53 65 71 77 38 27z m-452
-2 c-14 -13 -109 -55 -109 -48 0 10 79 50 99 51 8 1 12 -1 10 -3z m21 -25 c0
-5 -31 -25 -70 -45 -38 -21 -70 -33 -70 -28 0 5 30 26 68 45 77 41 72 40 72
28z m145 1 c-29 -25 -93 -71 -115 -82 l-25 -13 19 22 c23 25 105 81 120 81 6
0 6 -3 1 -8z m146 -19 c-15 -29 -110 -117 -117 -110 -3 3 20 33 51 67 57 59
85 77 66 43z m596 -60 c-2 -16 -4 -5 -4 22 0 28 2 40 4 28 2 -13 2 -35 0 -50z
m-501 -38 c-53 -77 -76 -101 -76 -76 0 15 121 173 127 167 4 -3 -19 -44 -51
-91z m-556 75 c0 -6 -19 -19 -42 -29 -64 -27 -88 -33 -88 -23 0 6 28 21 63 35
74 31 67 29 67 17z m310 -4 c0 -8 -111 -96 -122 -96 -16 0 1 19 54 60 45 36
68 48 68 36z m-160 -11 c0 -8 -108 -75 -121 -75 -21 0 12 30 60 55 47 24 61
29 61 20z m576 -81 c-29 -63 -63 -114 -76 -114 -13 0 4 42 53 130 47 85 64 74
23 -16z m-736 45 c0 -12 -109 -64 -117 -55 -11 10 10 25 63 46 27 10 50 19 52
20 1 0 2 -5 2 -11z m407 -56 c-31 -32 -59 -54 -63 -50 -4 4 18 32 49 64 32 31
60 53 64 49 4 -4 -18 -32 -50 -63z m-572 31 c-25 -19 -93 -39 -102 -31 -10 11
2 19 59 38 57 19 75 16 43 -7z m330 16 c6 -10 -90 -70 -113 -70 -22 0 -3 19
51 50 60 35 54 33 62 20z m155 1 c0 -10 -110 -101 -122 -101 -21 0 -3 23 50
64 59 46 72 53 72 37z m300 -19 c0 -21 -95 -142 -112 -142 -16 0 -7 19 43 84
47 60 69 79 69 58z m280 -92 c-9 -35 -54 -89 -65 -78 -3 3 9 42 27 88 30 77
33 81 40 54 4 -16 3 -45 -2 -64z m-895 70 c6 -10 -74 -50 -101 -50 -25 0 -4
21 40 41 48 22 53 22 61 9z m412 -68 c-31 -31 -60 -53 -64 -49 -4 4 20 35 52
67 33 33 62 55 64 49 2 -6 -22 -36 -52 -67z m-707 59 c0 -10 -50 -28 -90 -33
-41 -5 -38 16 5 28 49 15 85 17 85 5z m145 -1 c8 -13 -55 -40 -92 -40 -35 0
-21 15 32 34 50 18 52 18 60 6z m315 1 c0 -11 -104 -81 -120 -81 -19 0 -1 19
53 55 54 36 67 41 67 26z m143 -14 c-10 -19 -92 -87 -104 -87 -22 0 -5 22 49
63 58 45 71 50 55 24z m-755 -19 c-6 -17 -87 -33 -101 -19 -7 7 -3 13 14 20
36 14 92 14 87 -1z m1208 -26 c-9 -28 -64 -102 -76 -102 -18 0 -10 25 26 84
24 37 40 54 46 48 6 -6 7 -19 4 -30z m-1591 18 c4 -6 -7 -10 -24 -10 -17 0
-31 5 -31 10 0 6 11 10 24 10 14 0 28 -4 31 -10z m248 -5 c1 -5 -19 -11 -45
-13 -54 -3 -67 14 -15 21 44 6 58 4 60 -8z m587 6 c0 -11 -80 -51 -103 -51
-33 0 -16 18 36 38 60 24 67 25 67 13z m-720 -11 c0 -5 -16 -10 -35 -10 -19 0
-35 5 -35 10 0 6 16 10 35 10 19 0 35 -4 35 -10z m418 -2 c-7 -21 -108 -39
-108 -19 0 12 47 29 83 30 18 1 27 -3 25 -11z m152 1 c0 -12 -61 -39 -90 -39
-34 0 -22 18 23 33 51 19 67 20 67 6z m305 -11 c-6 -14 -52 -46 -88 -60 -36
-15 -12 16 38 49 51 34 59 36 50 11z m455 12 c0 -35 -68 -116 -90 -108 -7 2 5
24 29 53 23 27 41 53 41 57 0 5 5 8 10 8 6 0 10 -5 10 -10z m-300 -19 c0 -15
-82 -81 -99 -81 -10 1 4 19 34 45 49 45 65 53 65 36z m150 -4 c0 -19 -76 -90
-91 -85 -8 3 3 21 30 51 44 48 61 57 61 34z m-1285 -7 c3 -5 2 -10 -4 -10 -5
0 -13 5 -16 10 -3 6 -2 10 4 10 5 0 13 -4 16 -10z m383 -2 c-5 -15 -98 -24
-98 -9 0 11 23 18 68 20 23 1 32 -3 30 -11z m-248 -13 c10 -12 9 -15 -8 -15
-27 0 -52 10 -52 21 0 15 47 10 60 -6z m120 -1 c0 -12 -9 -14 -42 -12 -59 4
-63 28 -4 28 35 0 46 -4 46 -16z m569 0 c-26 -31 -111 -62 -93 -33 10 17 67
49 88 49 16 0 16 -2 5 -16z m-289 -4 c0 -9 -12 -13 -72 -25 -28 -5 -32 14 -6
24 31 13 78 13 78 1z m150 0 c0 -12 -27 -26 -69 -35 -45 -10 -38 15 10 32 42
15 59 16 59 3z m299 -27 c-21 -24 -87 -54 -94 -42 -8 12 -11 9 44 42 46 27 72
27 50 0z m597 -31 c-34 -35 -44 -22 -16 24 20 31 24 34 33 19 7 -13 3 -23 -17
-43z m-1176 27 c0 -5 -21 -9 -47 -9 -48 0 -50 15 -3 22 30 5 50 -1 50 -13z
m740 2 c0 -11 -67 -71 -80 -71 -22 0 -8 29 27 53 40 28 53 33 53 18z m310 -5
c0 -12 -63 -76 -75 -76 -13 0 -2 23 26 55 33 37 49 44 49 21z m-1170 -6 c0 -5
-13 -10 -30 -10 -16 0 -30 5 -30 10 0 6 14 10 30 10 17 0 30 -4 30 -10z m265
0 c7 -11 -35 -30 -66 -30 -28 0 -23 17 9 28 36 14 50 14 57 2z m295 0 c0 -15
-59 -42 -83 -38 -19 3 -16 7 18 25 44 24 65 28 65 13z m460 2 c0 -11 -39 -47
-67 -61 -34 -18 -29 5 9 40 31 28 58 38 58 21z m-600 -11 c0 -10 -54 -31 -81
-31 -28 0 -23 17 9 28 35 13 72 15 72 3z m-270 -21 c0 -5 -18 -10 -40 -10 -22
0 -40 5 -40 10 0 6 18 10 40 10 22 0 40 -4 40 -10z m570 1 c0 -11 -62 -51 -79
-51 -22 0 -11 20 22 40 34 21 57 26 57 11z m160 -10 c0 -11 -58 -61 -71 -61
-18 0 -9 19 22 44 32 27 49 33 49 17z m294 -28 c-30 -22 -39 -15 -13 13 15 16
25 21 28 13 2 -7 -4 -18 -15 -26z m-898 12 c-22 -17 -66 -20 -66 -6 0 13 19
19 55 20 29 0 29 0 11 -14z m159 5 c7 -11 -35 -30 -66 -30 -30 0 -22 16 14 28
43 13 45 14 52 2z m139 -1 c-6 -10 -65 -39 -79 -39 -14 0 -2 17 23 32 31 20
67 24 56 7z m442 -26 c-15 -12 -35 -23 -44 -23 -13 1 -8 8 16 31 18 16 38 26
44 23 7 -5 2 -16 -16 -31z m-851 7 c4 -6 -5 -10 -19 -10 -14 0 -26 5 -26 10 0
6 9 10 19 10 11 0 23 -4 26 -10z m559 -27 c-20 -15 -54 -18 -54 -4 0 14 64 42
69 29 2 -6 -4 -17 -15 -25z m160 -10 c-34 -25 -51 -14 -19 12 19 16 31 20 34
13 2 -6 -4 -17 -15 -25z m-569 17 c-3 -5 -17 -10 -31 -10 -14 0 -22 4 -19 10
3 6 17 10 31 10 14 0 22 -4 19 -10z m143 -2 c-5 -13 -58 -31 -58 -19 0 8 38
29 53 30 5 1 7 -4 5 -11z m152 3 c0 -8 -52 -31 -71 -31 -17 0 -9 17 14 28 28
13 57 15 57 3z m442 -13 c-6 -6 -15 -8 -19 -4 -4 4 -1 11 7 16 19 12 27 3 12
-12z m-287 -17 c-7 -12 -45 -21 -45 -11 0 12 33 30 42 23 5 -2 6 -8 3 -12z
m-275 -11 c0 -5 -9 -10 -21 -10 -11 0 -17 5 -14 10 3 6 13 10 21 10 8 0 14 -4
14 -10z m135 0 c-3 -5 -16 -10 -28 -10 -18 0 -19 2 -7 10 20 13 43 13 35 0z"/>
<path d="M6373 3359 c-187 -17 -369 -103 -459 -218 -55 -70 -84 -145 -91 -238
-14 -185 64 -337 214 -415 91 -48 233 -100 377 -138 145 -39 192 -59 239 -100
93 -81 57 -205 -68 -239 -156 -43 -448 47 -652 200 l-53 39 -81 -162 -81 -162
30 -26 c93 -77 294 -171 452 -210 107 -27 345 -38 446 -21 320 54 504 235 504
495 0 140 -39 237 -131 327 -84 82 -164 118 -414 190 -249 72 -335 127 -335
215 0 86 56 124 183 124 120 0 333 -63 476 -141 30 -16 58 -26 61 -22 4 5 41
79 83 165 l76 158 -42 24 c-83 49 -196 96 -289 120 -81 21 -291 49 -338 45 -8
-1 -57 -5 -107 -10z"/>
<path d="M7921 3328 c-5 -13 -167 -389 -360 -836 -193 -447 -351 -815 -351
-818 0 -2 98 -4 218 -4 l217 0 60 155 60 155 369 -2 368 -3 58 -150 58 -150
227 -3 c214 -2 227 -1 221 15 -4 10 -163 388 -353 841 l-347 822 -218 0 c-217
0 -219 0 -227 -22z m339 -726 c62 -161 111 -294 108 -297 -3 -3 -111 -4 -241
-3 l-236 3 121 308 c70 177 124 303 128 295 4 -7 58 -145 120 -306z"/>
<path d="M9080 3180 l0 -170 250 0 250 0 0 -670 0 -670 215 0 215 0 0 670 0
670 250 0 250 0 0 170 0 170 -715 0 -715 0 0 -170z"/>
<path d="M10540 3180 l0 -170 253 -2 252 -3 3 -667 2 -668 210 0 210 0 2 668
3 667 253 3 252 2 0 170 0 170 -720 0 -720 0 0 -170z"/>
<path d="M12009 3303 c10 -27 157 -405 326 -841 l308 -792 221 2 220 3 328
835 c180 459 328 836 328 837 0 2 -98 3 -217 3 l-218 0 -109 -313 c-59 -171
-156 -449 -214 -615 -62 -181 -108 -298 -112 -290 -5 7 -100 280 -214 606
-113 326 -208 597 -211 603 -4 5 -101 9 -230 9 l-225 0 19 -47z"/>
<path d="M14441 3328 c-5 -13 -167 -389 -360 -836 -193 -447 -351 -815 -351
-818 0 -2 98 -4 218 -4 l217 0 60 155 60 155 369 -2 368 -3 58 -150 58 -150
227 -3 c214 -2 227 -1 221 15 -4 10 -163 388 -353 841 l-347 822 -218 0 c-217
0 -219 0 -227 -22z m339 -726 c62 -161 111 -294 108 -297 -3 -3 -111 -4 -241
-3 l-236 3 121 308 c70 177 124 303 128 295 4 -7 58 -145 120 -306z"/>
</g>
</svg>
